<?xml version="1.0" encoding="utf-8"?>
<!-- Generator: Adobe Illustrator 21.0.2, SVG Export Plug-In . SVG Version: 6.00 Build 0)  -->
<svg version="1.1"
	 id="Layer_1" xmlns:cc="http://creativecommons.org/ns#" xmlns:dc="http://purl.org/dc/elements/1.1/" xmlns:inkscape="http://www.inkscape.org/namespaces/inkscape" xmlns:rdf="http://www.w3.org/1999/02/22-rdf-syntax-ns#" xmlns:sodipodi="http://sodipodi.sourceforge.net/DTD/sodipodi-0.dtd" xmlns:svg="http://www.w3.org/2000/svg"
	 xmlns="http://www.w3.org/2000/svg" xmlns:xlink="http://www.w3.org/1999/xlink" x="0px" y="0px" viewBox="0 0 100 100"
	 style="enable-background:new 0 0 100 100;" xml:space="preserve">
<g transform="translate(0,-952.36218)">
	<path style="fill:#323232;" d="M32.1,1027.3c1.7-0.1,2.9-1.5,2.9-3.1c0-0.8-0.4-1.5-1-2.1l-18.3-16.8h76.2c0.1,0,0.2,0,0.3,0
		c1.6-0.1,2.9-1.6,2.8-3.2c-0.1-1.6-1.6-2.9-3.2-2.8H15.5l18.4-16.8c1.3-1.1,1.4-3,0.4-4.2s-3-1.4-4.2-0.4c-0.1,0.1-0.1,0.1-0.2,0.2
		l-24,22c-1.2,1.1-1.3,3-0.2,4.2c0.1,0.1,0.1,0.1,0.2,0.2l24,22C30.5,1027,31.2,1027.3,32.1,1027.3z"/>
</g>
<text transform="matrix(1 0 0 1 0 115)" style="display:none;enable-background:new    ; font-family:'Arial-BoldMT'; font-size:5px;">Created by Icons Bazaar</text>
<text transform="matrix(1 0 0 1 0 120)" style="display:none;enable-background:new    ; font-family:'Arial-BoldMT'; font-size:5px;">from the Noun Project</text>
</svg>
