<?xml version="1.0" encoding="utf-8"?>
<!-- Generator: Adobe Illustrator 21.0.2, SVG Export Plug-In . SVG Version: 6.00 Build 0)  -->
<svg version="1.1"
	 id="Layer_1" xmlns:cc="http://creativecommons.org/ns#" xmlns:dc="http://purl.org/dc/elements/1.1/" xmlns:inkscape="http://www.inkscape.org/namespaces/inkscape" xmlns:rdf="http://www.w3.org/1999/02/22-rdf-syntax-ns#" xmlns:sodipodi="http://sodipodi.sourceforge.net/DTD/sodipodi-0.dtd" xmlns:svg="http://www.w3.org/2000/svg"
	 xmlns="http://www.w3.org/2000/svg" xmlns:xlink="http://www.w3.org/1999/xlink" x="0px" y="0px" viewBox="0 0 100 100"
	 style="enable-background:new 0 0 100 100;" xml:space="preserve">
<g transform="translate(0,-952.36218)">
	<path style="fill:#323232;" d="M50,957.4c-24.8,0-45,20.2-45,45c0,24.8,20.2,45,45,45s45-20.2,45-45S74.8,957.4,50,957.4z
		 M50,963.4c21.6,0,39,17.4,39,39s-17.4,39-39,39s-39-17.4-39-39C11,980.8,28.4,963.4,50,963.4z M27.7,999.4
		c-1.7,0.1-2.9,1.5-2.8,3.2s1.5,2.9,3.2,2.8l0,0h44c1.7,0,3-1.3,3-3s-1.3-3-3-3H72H28C27.9,999.4,27.8,999.4,27.7,999.4z"/>
</g>
</svg>
