<?xml version="1.0" encoding="utf-8"?>
<!-- Generator: Adobe Illustrator 22.0.0, SVG Export Plug-In . SVG Version: 6.00 Build 0)  -->
<svg version="1.1" id="Layer_1" xmlns="http://www.w3.org/2000/svg" xmlns:xlink="http://www.w3.org/1999/xlink" x="0px" y="0px"
	 viewBox="0 0 100 100" style="enable-background:new 0 0 100 100;" xml:space="preserve">
<title>Untitled-2</title>
<path style="fill:#A5A5A5;" d="M0,46.8v-3.3c0.2-1.5,0.4-3,0.7-4.4c1.6-7.4,5.6-13.3,11.2-18.2C20.7,13.2,31.1,9.4,42.6,8
	c6.9-0.8,13.9-0.5,20.8,1c9.2,1.9,17.6,5.6,24.7,11.9c5.6,4.9,9.6,10.9,11.3,18.3c0.3,1.4,0.5,2.8,0.7,4.2v3.5
	c-0.1,0.3-0.2,0.6-0.2,0.8c-0.4,5.3-2.3,10.1-5.2,14.4c-4.8,7.1-11.4,12-19.2,15.4C62.4,83.2,48.9,84.1,35,81
	c-0.6-0.1-1.3,0-1.8,0.2c-7.3,3.6-14.6,7.2-21.8,10.8c-0.3,0.2-0.6,0.3-1.2,0.5l8.9-17.9c-2.1-1.5-4.1-2.8-5.9-4.4
	C7.1,65.4,2.8,59.5,0.9,51.9C0.5,50.2,0.3,48.5,0,46.8z M70,50.1c2.8,0.1,5.1-2.2,5.1-4.9l0,0v-0.1c0-2.9-2.2-5.1-5.1-5.1
	c-2.7,0-4.9,2.3-5,5.1C65,47.9,67.2,50.1,70,50.1z M50,50.1c2.8,0,5.1-2.3,5.1-5.1s-2.3-5.1-5.2-5c-2.6,0-4.9,2.3-4.9,5
	C44.9,47.8,47.2,50.1,50,50.1L50,50.1L50,50.1z M24.9,45c0,2.8,2.3,5,5.1,5c2.7,0,4.9-2.1,5-4.9c0-3-2.2-5.2-5.3-5.2
	C27.2,40,24.9,42.3,24.9,45L24.9,45z"/>
<text transform="matrix(1 0 0 1 0 110)" style="display:none;enable-background:new    ; font-family:'HelveticaNeue-Bold'; font-size:5px;">Created by i cons</text>
<text transform="matrix(1 0 0 1 0 115)" style="display:none;enable-background:new    ; font-family:'HelveticaNeue-Bold'; font-size:5px;">from the Noun Project</text>
</svg>
