<?xml version="1.0" encoding="utf-8"?>
<!-- Generator: Adobe Illustrator 22.0.0, SVG Export Plug-In . SVG Version: 6.00 Build 0)  -->
<svg version="1.1"
	 id="Layer_1" xmlns:cc="http://creativecommons.org/ns#" xmlns:dc="http://purl.org/dc/elements/1.1/" xmlns:inkscape="http://www.inkscape.org/namespaces/inkscape" xmlns:rdf="http://www.w3.org/1999/02/22-rdf-syntax-ns#" xmlns:sodipodi="http://sodipodi.sourceforge.net/DTD/sodipodi-0.dtd" xmlns:svg="http://www.w3.org/2000/svg"
	 xmlns="http://www.w3.org/2000/svg" xmlns:xlink="http://www.w3.org/1999/xlink" x="0px" y="0px" viewBox="0 0 100 100"
	 style="enable-background:new 0 0 100 100;" xml:space="preserve">
<g transform="translate(0,-952.36218)">
	<path style="fill:#FFFFFF;" d="M50,952.4c-16.8,0-31.6,8.3-40.7,20.9c0,0,0,0,0,0v0c-5.9,8.2-9.3,18.2-9.3,29
		c0,10.8,3.4,20.8,9.3,29l0,0c0,0,0,0,0,0c9.1,12.7,23.9,20.9,40.7,20.9s31.6-8.3,40.7-20.9c0,0,0,0,0,0c5.9-8.2,9.3-18.2,9.3-29
		c0-10.8-3.4-20.8-9.3-29c0,0,0,0,0,0C81.6,960.6,66.8,952.4,50,952.4L50,952.4z M48.8,954.8v18.5H30.6c0.7-1.7,1.4-3.4,2.2-4.9
		C37.1,960.6,42.3,955.5,48.8,954.8z M51.2,954.8c6.2,0.6,11.8,5.5,16,13.6c0.8,1.5,1.5,3.2,2.2,4.9H51.2L51.2,954.8z M40.2,955.7
		c-3.6,2.6-6.8,6.6-9.4,11.6c-1,1.9-1.9,3.9-2.7,6H12.2C19,964.4,28.9,958.1,40.2,955.7z M59.8,955.7c11.3,2.4,21.2,8.7,28,17.6
		H71.9c-0.8-2.1-1.7-4.2-2.7-6C66.6,962.3,63.4,958.3,59.8,955.7z M10.5,975.6h16.8c-1.6,4.9-2.8,10.4-3.5,16.3H3.5
		C4.8,986,7.2,980.5,10.5,975.6z M29.8,975.6h19.1v16.3H26.2C26.8,986,28.1,980.5,29.8,975.6z M51.2,975.6h19.1
		c1.7,4.9,2.9,10.4,3.6,16.3H51.2L51.2,975.6z M72.7,975.6h16.8c3.3,4.9,5.7,10.4,7,16.3H76.2C75.5,986,74.3,980.5,72.7,975.6z
		 M3,994.2h20.6c-0.2,2.7-0.4,5.4-0.4,8.1c0,2.8,0.1,5.5,0.4,8.1H3c-0.5-2.6-0.7-5.4-0.7-8.1C2.3,999.6,2.6,996.9,3,994.2z
		 M25.9,994.2h22.9v16.3H25.9c-0.2-2.6-0.4-5.4-0.4-8.1C25.6,999.6,25.7,996.9,25.9,994.2z M51.2,994.2h22.9
		c0.2,2.6,0.4,5.4,0.4,8.1c0,2.8-0.1,5.5-0.4,8.1H51.2V994.2z M76.4,994.2H97c0.5,2.6,0.7,5.4,0.7,8.1c0,2.8-0.2,5.5-0.7,8.1H76.4
		c0.2-2.7,0.4-5.4,0.4-8.1C76.7,999.6,76.6,996.9,76.4,994.2z M3.5,1012.8h20.3c0.6,5.9,1.8,11.4,3.5,16.3H10.5
		C7.2,1024.2,4.8,1018.7,3.5,1012.8z M26.2,1012.8h22.6v16.3h-19C28.1,1024.3,26.9,1018.8,26.2,1012.8z M51.2,1012.8h22.6
		c-0.7,5.9-1.9,11.4-3.6,16.3h-19V1012.8z M76.2,1012.8h20.3c-1.3,5.9-3.7,11.4-7,16.3H72.7C74.3,1024.2,75.5,1018.7,76.2,1012.8z
		 M12.2,1031.4h15.9c0.8,2.1,1.7,4.1,2.7,6c2.6,5,5.8,9,9.5,11.6C28.9,1046.7,19,1040.3,12.2,1031.4z M30.6,1031.4h18.2v18.5
		c-6.2-0.6-11.8-5.5-16-13.6C32.1,1034.8,31.3,1033.2,30.6,1031.4z M51.2,1031.4h18.2c-0.7,1.7-1.4,3.4-2.2,4.9
		c-4.2,8.1-9.8,13.1-16,13.6V1031.4z M71.9,1031.4h15.9c-6.8,8.9-16.7,15.2-28.1,17.6c3.7-2.6,6.9-6.6,9.5-11.6
		C70.2,1035.6,71.1,1033.6,71.9,1031.4z"/>
</g>
<text transform="matrix(1 0 0 1 0 115)" style="display:none;enable-background:new    ; font-family:'HelveticaNeue-Bold'; font-size:5px;">Created by Rockicon</text>
<text transform="matrix(1 0 0 1 0 120)" style="display:none;enable-background:new    ; font-family:'HelveticaNeue-Bold'; font-size:5px;">from the Noun Project</text>
</svg>
