<?xml version="1.0" encoding="utf-8"?>
<!-- Generator: Adobe Illustrator 22.0.0, SVG Export Plug-In . SVG Version: 6.00 Build 0)  -->
<svg version="1.1" id="Layer_1" xmlns="http://www.w3.org/2000/svg" xmlns:xlink="http://www.w3.org/1999/xlink" x="0px" y="0px"
	 viewBox="0 0 100 100" style="enable-background:new 0 0 100 100;" xml:space="preserve">
<title>se1</title>
<path d="M39,78.5c-21.7,0.1-39.3-17.3-39.5-39S16.9,0.1,38.5,0S77.9,17.3,78,39c0,0.1,0,0.2,0,0.2C78,60.8,60.6,78.4,39,78.5z
	 M39,15.5C25.9,15.3,15.1,25.9,15,39c-0.1,13.1,10.4,23.9,23.6,24c13.1,0.1,23.9-10.4,24-23.6c0-0.1,0-0.2,0-0.2
	C62.6,26.1,52.1,15.5,39,15.5L39,15.5z"/>
<rect x="70.2" y="54.5" transform="matrix(0.7056 -0.7086 0.7086 0.7056 -32.3037 78.1514)" width="15.4" height="47"/>
<text transform="matrix(1 0 0 1 0 115)" style="display:none;enable-background:new    ; font-family:'HelveticaNeue-Bold'; font-size:5px;">Created by i cons</text>
<text transform="matrix(1 0 0 1 0 120)" style="display:none;enable-background:new    ; font-family:'HelveticaNeue-Bold'; font-size:5px;">from the Noun Project</text>
</svg>
