<?xml version="1.0" encoding="utf-8"?>
<!-- Generator: Adobe Illustrator 21.1.0, SVG Export Plug-In . SVG Version: 6.00 Build 0)  -->
<svg version="1.1" id="Layer_1" xmlns="http://www.w3.org/2000/svg" xmlns:xlink="http://www.w3.org/1999/xlink" x="0px" y="0px"
	 viewBox="0 0 100 100" style="enable-background:new 0 0 100 100;" xml:space="preserve">
<style type="text/css">
	.st0{display:none;enable-background:new    ;}
	.st1{display:inline;}
</style>
<path d="M41.4,42.5c0,2.2-2.8,5.5-5.4,6.8c-1-0.4-1.8-1-1.8-1.5c0,0.5-1.2,1.3-2.4,1.7c-1.8-0.1-3.5-0.2-5.3-0.2
	c-3-0.1-5.8,0.1-8.8,0.1C11.8,49.5,5.6,49.6,0,49.8v0.1c5.6,0.2,11.8,0.3,17.7,0.4c3,0.1,5.9,0.2,8.9,0.1c1.8-0.1,3.5-0.1,5.3-0.2
	c1.3,0.4,2.4,1.2,2.4,1.7c0-0.5,0.8-1,1.8-1.5c2.6,1.3,5.4,4.6,5.4,6.8c0-2.9,4.5-7.4,7.4-7.4C46,49.9,41.4,45.3,41.4,42.5z"/>
<path d="M82.3,49.4c-3-0.1-5.9-0.2-8.9-0.1c-1.8,0.1-3.5,0.1-5.3,0.2c-1.3-0.4-2.4-1.2-2.4-1.7c0,0.5-0.8,1-1.8,1.5
	c-2.6-1.3-5.4-4.6-5.4-6.8c0,2.9-4.5,7.4-7.4,7.4c2.9,0,7.4,4.5,7.4,7.4c0-2.2,2.8-5.5,5.4-6.8c1,0.4,1.8,1,1.8,1.5
	c0-0.5,1.2-1.3,2.4-1.7c1.8,0.1,3.5,0.2,5.3,0.2c3,0.1,5.8-0.1,8.8-0.1c5.9-0.1,12.2-0.2,17.7-0.4v-0.1
	C94.4,49.6,88.2,49.5,82.3,49.4z"/>
<circle cx="50" cy="49.9" r="1.9"/>
<text transform="matrix(1 0 0 1 0 115)" class="st0" style="font-family:'HelveticaNeue-Bold'; font-size:5px;">Created by Bettina Tan</text>
<text transform="matrix(1 0 0 1 0 120)" class="st0" style="font-family:'HelveticaNeue-Bold'; font-size:5px;">from the Noun Project</text>
</svg>
