<svg viewBox="0 0 100 100" xmlns="http://www.w3.org/2000/svg"><defs><radialGradient cx="51.9924" cy="13.5086" gradientTransform="matrix(5.660332e-002 -1.08 0.918 4.811314e-002 -5.988 520.5566)" gradientUnits="userSpaceOnUse" id="instagram-full--svg icon-SVGID_1_" r="684.4449"><stop offset="0"/><stop offset="0.2634"/><stop offset="0.6091"/><stop offset="1"/></radialGradient></defs>
    <symbol viewBox="0 0 100 101" id="360-deg"><title>360 degrees icon</title> <g>  <path d="M2.5,50.5c1.4,0,2.5-1.1,2.5-2.5c0-11.3,20-20.8,43.4-20.8c4.7,0,9.4,0.4,13.8,1.1l-4.3,2.3l6.2,1.5
		c2.5,0.6,4.9,1.2,7.3,1.8c5.4,1.5,10.8,3.1,15.8,4.8l7.8,2.7l-5-6.4c-0.6-0.9-1.3-1.6-1.8-2.3c-3-3.6-6.3-7-10-10.4l-1.2-1
		l-1.4,0.5c-2.1,0.9-4.3,1.8-6.3,2.8c-6.4-1.6-13.4-2.5-20.7-2.5C21.4,22.3,0.1,33.6,0.1,48C0.1,49.5,1.1,50.5,2.5,50.5z"/> <path d="M51.5,72.7c-4.7,0-9.4-0.4-13.8-1.1l4.3-2.3l-6.2-1.5c-2.5-0.6-4.9-1.2-7.3-1.8c-5.5-1.5-10.8-3.1-15.8-4.8l-7.6-2.8l5,6.5
		c0.6,0.9,1.3,1.6,1.8,2.3c3,3.6,6.3,7,10,10.4l1.2,1l1.4-0.5c2.1-0.9,4.3-1.8,6.3-2.8c6.4,1.6,13.4,2.5,20.7,2.5
		C78.7,77.7,100,66.4,100,52c0-1.4-1.1-2.5-2.5-2.5c-1.4,0-2.5,1.1-2.5,2.5C95,63.1,75.1,72.7,51.5,72.7z"/> </g> <text transform="matrix(1 0 0 1 0 115)">Created by mikicon</text> <text transform="matrix(1 0 0 1 0 120)">from the Noun Project</text> </symbol>
    <symbol viewBox="0 0 100 125" id="360-globe"><title>360-globe</title><g><path d="M3.3,51.9c0.1,3.5,2.7,6.7,7.2,9.3c1.7,7.5,5.5,14.3,10.7,19.7c0.4,2.9,1.1,5.5,2.2,7.7c1.8,3.6,4.6,5.9,8,6.6   c0.9,0.2,1.8,0.3,2.8,0.3c2.8,0,5.9-0.9,9.3-2.6l0,0c2.4,0.4,4.9,0.7,7.5,0.7c5.5,0,10.7-1.1,15.4-3l-0.2,0.7   c2.7,0.9,5.3,1.6,7.5,1.6c1.7,0,3.2-0.4,4.4-1.5c2.6-2.2,3.4-5.9,2.8-10.7c5.8-6.1,9.8-14,11.1-22.7c3.7-2.7,5.8-5.8,5.7-9.1   c-0.1-3.4-3.5-6.1-6.5-8.2L91,41.1c-2.2-8.1-6.9-15.3-13.1-20.6l0,0c-1.2-3.7-4.1-10-9.1-11.2c-3.3-0.7-7,0-10.9,1.8   c-2.3-0.4-4.6-0.6-7-0.6c-8.9,0-17.1,2.8-23.9,7.6c-4.4-1.1-7.9-0.7-10.2,1.3c-2.3,2-2.3,6.6-2,11.4l0.5,0   c-2.2,3.7-3.8,7.7-4.8,11.9l-0.4-0.6C5.5,45,3.2,48.5,3.3,51.9z M95.7,48.9c0.1,2.2-1.2,4.3-3.4,6.3c0.1-1,0.1-2.1,0.1-3.1   c0-3-0.3-5.9-0.9-8.7C93.6,44.8,95.7,46.8,95.7,48.9z M20.9,73.5l-3.3-0.3c-2.1-3.3-3.8-6.9-4.8-10.8c2.6,1.2,5.7,2.3,9.1,3.2   C21.4,68.4,21.1,71,20.9,73.5z M31.8,93.2c-2.9-0.6-5.2-2.5-6.7-5.6c-0.7-1.3-1.2-2.8-1.5-4.4c4.7,4.2,10.4,7.3,16.7,8.9   C37.2,93.4,34.3,93.8,31.8,93.2z M50.9,91.5c-10.9,0-20.7-4.4-27.9-11.5c0-0.2,0-0.5-0.1-0.7l5.3-5L23,73.7c0.1-2.4,0.5-5,1-7.6   c5.7,1.3,12.3,2.1,19.5,2.3l0.6,8.4l8.5-8.5c7.7-0.3,14.9-1.3,21.2-2.8c2.8,5.4,4.6,10.3,5.2,14.4C71.7,87.1,61.8,91.5,50.9,91.5z    M33.1,40.9c2.6-4.8,5.4-9.2,8.4-13c5.7,4.2,11.5,9.6,17,15.8l-6.2,6l11.8,0.9c3.3,4.4,6.2,8.8,8.4,13c-6.2,1.5-13.3,2.4-20.8,2.7   l-9-6.8l0.5,6.9c-6.9-0.2-13.4-1-18.9-2.3c1.1-4.9,2.7-10,4.9-15.2l7.5,3.2L33.1,40.9z M76.8,89.8c-1.7,1.5-4.6,1.1-8.6-0.1   c4-1.9,7.7-4.3,10.9-7.3C79.3,85.7,78.6,88.3,76.8,89.8z M80.5,78.1c-0.8-3.9-2.5-8.4-4.9-13.1c1.8-0.5,3.5-1,5.1-1.5l2.7,4.9   l2.6-6.9c1.4-0.6,2.6-1.3,3.8-2C88.4,66.5,85.1,72.9,80.5,78.1z M68.4,11.3c3,0.7,5.1,4,6.4,6.9c-4-2.9-8.6-5-13.5-6.3   C63.8,11,66.2,10.8,68.4,11.3z M58.1,13.2C76.5,16.5,90.4,32.7,90.4,52c0,1.6-0.1,3.2-0.3,4.8c-1.6,1-3.4,2-5.5,3l-6.7-1.5l1.8,3.4   c-1.6,0.5-3.3,1-5.1,1.5c-2.5-4.6-5.6-9.4-9.3-14.2l-0.6-11.3L60,42.3c-5.5-6.3-11.4-11.8-17.2-16c2.5-3.1,5.2-5.8,7.8-8.1l4.2,4.2   l0.5-7.7C56.2,14.1,57.2,13.6,58.1,13.2z M50.9,12.5c1.4,0,2.7,0.1,4.1,0.2c-0.6,0.4-1.2,0.8-1.8,1.2l-6.5,0.4l2.6,2.6   c-2.7,2.3-5.4,5.1-8,8.3c-1.8-1.3-3.6-2.4-5.3-3.4c-2.3-1.3-4.4-2.3-6.4-3C35.7,14.8,43,12.5,50.9,12.5z M18.1,21   c1.6-1.3,3.9-1.7,6.8-1.3c-3.1,2.5-5.9,5.5-8.2,8.9C16.6,25.8,16.7,22.2,18.1,21z M27.4,20.3c2.3,0.7,4.8,1.8,7.5,3.3   c1.7,0.9,3.3,2,5,3.2c-3.2,4-6.1,8.6-8.8,13.5l-10.4,5l6.6,2.9c-2.3,5.3-4,10.6-5.1,15.5c-4-1-7.4-2.3-10.1-3.7   c-0.5-2.5-0.8-5.2-0.8-7.9C11.4,39,17.7,27.5,27.4,20.3z M10,58.5c-2.9-2-4.6-4.2-4.7-6.7c-0.1-3,2.4-5.6,4.9-7.4   c-0.5,2.5-0.7,5-0.7,7.5C9.4,54.2,9.6,56.4,10,58.5z"/></g><text x="0" y="115" font-size="5px" font-weight="bold" font-family="&apos;Helvetica Neue&apos;, Helvetica, Arial-Unicode, Arial, Sans-serif">Created by Trident</text><text x="0" y="120" font-size="5px" font-weight="bold" font-family="&apos;Helvetica Neue&apos;, Helvetica, Arial-Unicode, Arial, Sans-serif">from the Noun Project</text></symbol>
    <symbol viewBox="0 0 100 100" id="arrow-dots--down"><title>78 all</title> <style type="text/css"> .st0{fill:#DFDFDF;} .st1{display:none;enable-background:new ;} .st2{display:inline;} </style>  <polygon class="st0" points="48.5,36.6 48.5,95.6 30.4,74.9 29,76.5 49.5,100 70,76.5 68.6,74.9 50.5,95.6 50.5,36.6 "/> <rect x="48.5" y="0" class="st0" width="2" height="4.6"/> <rect x="48.5" y="27.5" class="st0" width="2" height="4.6"/> <rect x="48.5" y="9.2" class="st0" width="2" height="4.6"/> <rect x="48.5" y="18.3" class="st0" width="2" height="4.6"/> <text transform="matrix(1 0 0 1 0 115)" class="st1">Created by Ramesha</text> <text transform="matrix(1 0 0 1 0 120)" class="st1">from the Noun Project</text> </symbol><symbol viewBox="0 0 100 100" id="arrow-dots"><title>78 all</title> <style type="text/css"> .st0{display:none;enable-background:new ;} .st1{display:inline;} </style>  <polygon points="62.9,48.9 3.9,48.9 24.6,28.1 23,26.5 -0.5,50 23,73.5 24.6,71.9 3.9,51.1 62.9,51.1 "/> <rect x="94.9" y="48.9" width="4.6" height="2.3"/> <rect x="67.4" y="48.9" width="4.6" height="2.3"/> <rect x="85.8" y="48.9" width="4.6" height="2.3"/> <rect x="76.6" y="48.9" width="4.6" height="2.3"/> <text transform="matrix(1 0 0 1 0 115)" class="st0">Created by Ramesha</text> <text transform="matrix(1 0 0 1 0 120)" class="st0">from the Noun Project</text> </symbol><symbol viewBox="0 0 100 100" id="comment--gray-mid"><title>Untitled-2</title>  <path d="M0,46.8v-3.3c0.2-1.5,0.4-3,0.7-4.4c1.6-7.4,5.6-13.3,11.2-18.2C20.7,13.2,31.1,9.4,42.6,8
	c6.9-0.8,13.9-0.5,20.8,1c9.2,1.9,17.6,5.6,24.7,11.9c5.6,4.9,9.6,10.9,11.3,18.3c0.3,1.4,0.5,2.8,0.7,4.2v3.5
	c-0.1,0.3-0.2,0.6-0.2,0.8c-0.4,5.3-2.3,10.1-5.2,14.4c-4.8,7.1-11.4,12-19.2,15.4C62.4,83.2,48.9,84.1,35,81
	c-0.6-0.1-1.3,0-1.8,0.2c-7.3,3.6-14.6,7.2-21.8,10.8c-0.3,0.2-0.6,0.3-1.2,0.5l8.9-17.9c-2.1-1.5-4.1-2.8-5.9-4.4
	C7.1,65.4,2.8,59.5,0.9,51.9C0.5,50.2,0.3,48.5,0,46.8z M70,50.1c2.8,0.1,5.1-2.2,5.1-4.9l0,0v-0.1c0-2.9-2.2-5.1-5.1-5.1
	c-2.7,0-4.9,2.3-5,5.1C65,47.9,67.2,50.1,70,50.1z M50,50.1c2.8,0,5.1-2.3,5.1-5.1s-2.3-5.1-5.2-5c-2.6,0-4.9,2.3-4.9,5
	C44.9,47.8,47.2,50.1,50,50.1L50,50.1L50,50.1z M24.9,45c0,2.8,2.3,5,5.1,5c2.7,0,4.9-2.1,5-4.9c0-3-2.2-5.2-5.3-5.2
	C27.2,40,24.9,42.3,24.9,45L24.9,45z"/> <text transform="matrix(1 0 0 1 0 110)">Created by i cons</text> <text transform="matrix(1 0 0 1 0 115)">from the Noun Project</text> </symbol><symbol viewBox="0 0 512 640" id="comment"><title>Comment</title><path d="M0,239.48v-17c1.2-7.51,2-15.11,3.67-22.53,8.23-37.71,28.64-68.14,57.25-93.25,45-39.47,98.54-59,157.19-66A326.54,326.54,0,0,1,324.4,45.57c47,9.94,89.91,28.73,126.31,60.71,28.74,25.3,49.29,55.76,57.63,93.64,1.56,7.11,2.45,14.37,3.66,21.55v18a29,29,0,0,0-1,4.33c-2.25,27-11.7,51.47-26.86,73.74-24.65,36.21-58.45,61.33-98.13,78.64-67,29.22-136.29,33.69-207.3,18a15.31,15.31,0,0,0-9.35,1.15c-37.34,18.37-74.55,37-111.8,55.52-1.57.78-3.2,1.45-6,2.72l45.37-91.45c-10.6-7.73-20.93-14.56-30.36-22.38-30.16-24.91-52.34-55.3-61.92-93.81C2.5,257.26,1.52,248.3,0,239.48Zm358.32,17.21a25.71,25.71,0,0,0,26.18-25.24q0-.24,0-0.47c0.1-14.62-11.49-26.12-26.34-26.14-13.92,0-25.33,11.68-25.38,26A25.72,25.72,0,0,0,358.32,256.69Zm-102.36,0a26.14,26.14,0,0,0,26.08-26c-0.09-14.47-11.92-25.87-26.8-25.84-13.55,0-25.09,11.82-25.25,25.79a26,26,0,0,0,25.95,26h0Zm-128.44-26.3a25.85,25.85,0,0,0,51.68,1c0.2-15.13-11.43-26.64-26.88-26.62-13.21.05-24.69,11.89-24.8,25.62h0Z"/><text x="0" y="527" font-size="5px" font-weight="bold" font-family="&apos;Helvetica Neue&apos;, Helvetica, Arial-Unicode, Arial, Sans-serif">Created by i cons</text><text x="0" y="532" font-size="5px" font-weight="bold" font-family="&apos;Helvetica Neue&apos;, Helvetica, Arial-Unicode, Arial, Sans-serif">from the Noun Project</text></symbol><symbol viewBox="0 0 100 100" id="expand-arrow--white"><title>expand-arrow--white</title> <g> <g> <path d="M45.1,10C69.6,10,90,29.4,90,54V10H45.1z"/> </g> <g> <polygon points="9.5,80.9 54.2,36 30,36 30,30 69,30 69,66 63,66 63,44.9 18.1,89.4 		"/> </g> </g> <text transform="matrix(1 0 0 1 0 115)">Created by Mahmudxon</text> <text transform="matrix(1 0 0 1 0 120)">from the Noun Project</text> </symbol><symbol viewBox="0 0 100 125" id="expand-arrow"><title>expand-arrow</title><g><g><path d="M45.053,10C69.603,10,90,29.402,90,53.952V10H45.053z"/></g><g><polygon points="9.497,80.934 54.16,36 30,36 30,30 69,30 69,66 63,66 63,44.923 18.109,89.45   "/></g></g><text x="0" y="115" font-size="5px" font-weight="bold" font-family="&apos;Helvetica Neue&apos;, Helvetica, Arial-Unicode, Arial, Sans-serif">Created by Mahmudxon</text><text x="0" y="120" font-size="5px" font-weight="bold" font-family="&apos;Helvetica Neue&apos;, Helvetica, Arial-Unicode, Arial, Sans-serif">from the Noun Project</text></symbol><symbol viewBox="0 0 100 100.5" id="facebook-f--mid-gray"><title>facebook-f--mid-gray</title> <path d="M70,16.2c-0.1-0.6-0.5-1-1-1.2c-3.3-1.2-7.6-2.4-12.3-2.4c-3.6,0-7.5,0.7-11.1,2.8l0,0
	c-1.8,1.1-3.2,2.4-4.3,3.9c-1.6,2.2-2.5,4.8-3,7.5c-0.4,2.1-0.5,4.3-0.6,6.4c-0.9,0-2,0-3,0c-0.8,0-1.6,0-2.2,0c-0.3,0-0.5,0-0.7,0
	c-0.2,0-0.2,0-0.2,0c-0.4,0-0.8,0.2-1.1,0.5c-0.3,0.3-0.5,0.7-0.5,1.1l0.1,10.6c0,0.9,0.7,1.7,1.6,1.7c0,0,0.4,0,1.1,0
	c1.6,0,4.5-0.1,6.7,0c0.3,7.3,0.4,18.1,0.4,26.6c0,3.6,0,6.7,0,8.9c0,1.1,0,2,0,2.6c0,0.6,0,0.9,0,0.9c0,0.4,0.2,0.8,0.5,1.1
	c0.3,0.3,0.7,0.5,1.1,0.5l14.1-0.1c0.4,0,0.8-0.2,1.1-0.5c0.3-0.3,0.5-0.7,0.5-1.1c0,0-0.1-8.7-0.2-18.1c-0.1-8.1-0.2-16.6-0.2-20.6
	c0.9,0,1.9,0,2.9,0c1.2,0,2.3,0,3.1,0c0.4,0,0.8,0,1,0c0.2,0,0.4,0,0.4,0c0.4,0,0.8-0.2,1.1-0.5s0.5-0.7,0.5-1.1l0-9.8
	c0-0.4-0.2-1-0.5-1.3C65,34.3,64.6,34,64.2,34c0,0-0.2,0-0.5,0s-0.8,0.1-1.4,0.1c-1.8,0-4.5,0.1-6.6,0c0-1.1,0.1-2,0.3-2.8
	c0.2-0.8,0.4-1.4,0.6-2c0.2-0.4,0.4-0.7,0.6-1c0.3-0.4,0.7-0.7,1.2-0.9c0.5-0.2,1.1-0.3,1.8-0.3c1.4,0,3.2,0.4,5.5,1.3
	c0,0,0,0,0.1,0c0,0,0,0,0.1,0c0,0,0.1,0,0.1,0c0.1,0,0.1,0,0.2,0c0.1,0,0.1,0,0.2,0c0.1,0,0.1,0,0.2,0c0.1,0,0.1,0,0.2,0
	c0.1,0,0.1,0,0.2,0c0,0,0.1,0,0.1,0c0,0,0.1,0,0.1-0.1c0,0,0.1,0,0.1-0.1c0,0,0.1-0.1,0.1-0.1c0,0,0.1-0.1,0.1-0.1
	c0,0,0.1-0.1,0.1-0.1c0,0,0.1-0.1,0.1-0.1c0,0,0.1-0.1,0.1-0.1c0,0,0-0.1,0.1-0.1c0,0,0-0.1,0-0.1c0,0,0,0,0-0.1c0,0,0,0,0,0
	c0.3-1.1,0.9-2.8,1.3-4.7c0.2-0.9,0.5-1.9,0.6-2.8c0.2-0.9,0.3-1.8,0.3-2.6C70.1,17,70,16.6,70,16.2z M56.6,24.8
	c-0.8,0.4-1.5,1-2,1.7c-0.8,1-1.4,2.3-1.7,3.8c-0.3,1.5-0.5,3.1-0.5,5c0,0.2,0,0.4,0,0.6c0,0.8,0.7,1.3,1.5,1.3
	c2.3,0.1,6-0.1,8.2-0.1c0.1,0,0.2,0,0.3,0l0,6.8c-0.8,0-1.9,0.1-2.9,0.1c-1.7,0-3.4,0.1-4.6,0.1c-0.9,0-1.5,0.8-1.5,1.6
	c0,2.7,0.1,12.8,0.2,22.2c0,4.7,0.1,9.2,0.1,12.6c0,1.6,0,3,0,3.9L43,84.4c0-2.1,0-6.1,0-10.9c0-9.1-0.1-20.9-0.5-28.2
	c0-0.8-0.7-1.5-1.5-1.5c-2.2-0.1-5.7-0.1-7.8-0.1l0-7.3c0.5,0,1,0,1.5,0c1.6,0,3.3,0,4.6-0.1c0.8,0,1.5-0.7,1.5-1.5
	c0.1-3.3,0.3-6.7,1.2-9.6c0.4-1.4,1.1-2.8,1.9-3.9c0.8-1.2,1.9-2.2,3.3-3l0,0c3-1.8,6.3-2.4,9.5-2.4c3.7,0,7.3,0.9,10.2,1.8
	c0,0.5-0.1,1.1-0.2,1.8c-0.2,1.2-0.6,2.6-0.9,3.9c-0.2,0.6-0.3,1.1-0.5,1.7c-1.9-0.6-3.5-0.9-5.1-0.9C58.9,24,57.7,24.3,56.6,24.8z"/> <text transform="matrix(1 0 0 1 0 115)">Created by Maria Maldonado</text> <text transform="matrix(1 0 0 1 0 120)">from the Noun Project</text> </symbol><symbol viewBox="0 0 100 100.5" id="facebook-f"><title>facebook-f</title> <path d="M70,16.2c-0.1-0.6-0.5-1-1-1.2c-3.3-1.2-7.6-2.4-12.3-2.4c-3.6,0-7.5,0.7-11.1,2.8l0,0
	c-1.8,1.1-3.2,2.4-4.3,3.9c-1.6,2.2-2.5,4.8-3,7.5c-0.4,2.1-0.5,4.3-0.6,6.4c-0.9,0-2,0-3,0c-0.8,0-1.6,0-2.2,0c-0.3,0-0.5,0-0.7,0
	c-0.2,0-0.2,0-0.2,0c-0.4,0-0.8,0.2-1.1,0.5c-0.3,0.3-0.5,0.7-0.5,1.1l0.1,10.6c0,0.9,0.7,1.7,1.6,1.7c0,0,0.4,0,1.1,0
	c1.6,0,4.5-0.1,6.7,0c0.3,7.3,0.4,18.1,0.4,26.6c0,3.6,0,6.7,0,8.9c0,1.1,0,2,0,2.6c0,0.6,0,0.9,0,0.9c0,0.4,0.2,0.8,0.5,1.1
	c0.3,0.3,0.7,0.5,1.1,0.5l14.1-0.1c0.4,0,0.8-0.2,1.1-0.5c0.3-0.3,0.5-0.7,0.5-1.1c0,0-0.1-8.7-0.2-18.1c-0.1-8.1-0.2-16.6-0.2-20.6
	c0.9,0,1.9,0,2.9,0c1.2,0,2.3,0,3.1,0c0.4,0,0.8,0,1,0c0.2,0,0.4,0,0.4,0c0.4,0,0.8-0.2,1.1-0.5s0.5-0.7,0.5-1.1l0-9.8
	c0-0.4-0.2-1-0.5-1.3C65,34.3,64.6,34,64.2,34c0,0-0.2,0-0.5,0s-0.8,0.1-1.4,0.1c-1.8,0-4.5,0.1-6.6,0c0-1.1,0.1-2,0.3-2.8
	c0.2-0.8,0.4-1.4,0.6-2c0.2-0.4,0.4-0.7,0.6-1c0.3-0.4,0.7-0.7,1.2-0.9c0.5-0.2,1.1-0.3,1.8-0.3c1.4,0,3.2,0.4,5.5,1.3
	c0,0,0,0,0.1,0c0,0,0,0,0.1,0c0,0,0.1,0,0.1,0c0.1,0,0.1,0,0.2,0c0.1,0,0.1,0,0.2,0c0.1,0,0.1,0,0.2,0c0.1,0,0.1,0,0.2,0
	c0.1,0,0.1,0,0.2,0c0,0,0.1,0,0.1,0c0,0,0.1,0,0.1-0.1c0,0,0.1,0,0.1-0.1c0,0,0.1-0.1,0.1-0.1c0,0,0.1-0.1,0.1-0.1
	c0,0,0.1-0.1,0.1-0.1c0,0,0.1-0.1,0.1-0.1c0,0,0.1-0.1,0.1-0.1c0,0,0-0.1,0.1-0.1c0,0,0-0.1,0-0.1c0,0,0,0,0-0.1c0,0,0,0,0,0
	c0.3-1.1,0.9-2.8,1.3-4.7c0.2-0.9,0.5-1.9,0.6-2.8c0.2-0.9,0.3-1.8,0.3-2.6C70.1,17,70,16.6,70,16.2z M56.6,24.8
	c-0.8,0.4-1.5,1-2,1.7c-0.8,1-1.4,2.3-1.7,3.8c-0.3,1.5-0.5,3.1-0.5,5c0,0.2,0,0.4,0,0.6c0,0.8,0.7,1.3,1.5,1.3
	c2.3,0.1,6-0.1,8.2-0.1c0.1,0,0.2,0,0.3,0l0,6.8c-0.8,0-1.9,0.1-2.9,0.1c-1.7,0-3.4,0.1-4.6,0.1c-0.9,0-1.5,0.8-1.5,1.6
	c0,2.7,0.1,12.8,0.2,22.2c0,4.7,0.1,9.2,0.1,12.6c0,1.6,0,3,0,3.9L43,84.4c0-2.1,0-6.1,0-10.9c0-9.1-0.1-20.9-0.5-28.2
	c0-0.8-0.7-1.5-1.5-1.5c-2.2-0.1-5.7-0.1-7.8-0.1l0-7.3c0.5,0,1,0,1.5,0c1.6,0,3.3,0,4.6-0.1c0.8,0,1.5-0.7,1.5-1.5
	c0.1-3.3,0.3-6.7,1.2-9.6c0.4-1.4,1.1-2.8,1.9-3.9c0.8-1.2,1.9-2.2,3.3-3l0,0c3-1.8,6.3-2.4,9.5-2.4c3.7,0,7.3,0.9,10.2,1.8
	c0,0.5-0.1,1.1-0.2,1.8c-0.2,1.2-0.6,2.6-0.9,3.9c-0.2,0.6-0.3,1.1-0.5,1.7c-1.9-0.6-3.5-0.9-5.1-0.9C58.9,24,57.7,24.3,56.6,24.8z"/> <text transform="matrix(1 0 0 1 0 115)">Created by Maria Maldonado</text> <text transform="matrix(1 0 0 1 0 120)">from the Noun Project</text> </symbol><symbol viewBox="0 0 512 512" id="fb-svg-icon--black-white"><title>fb-svg-icon--black-white</title> <g> <circle cx="256" cy="256" r="256"/> <path d="M301.6,151.2c15.6,0,36.3,0,36.3,0V97c0,0-21.8,0-51.4,0s-68.1,19-68.1,74.2c0,10.3,0,25.4,0,43
		h-49.1v56.1h49.1c0,69.9,0,146,0,146h21.8h17.3H277c0,0,0-78.8,0-146h48.8l8.1-56.1H277c0-18.4,0-31.8,0-35.7
		C277,160.1,286,151.2,301.6,151.2z"/> </g> </symbol><symbol viewBox="0 0 512 512" id="fb-svg-icon--round-blue"><title>fb-svg-icon--round-blue</title><g><circle cx="256" cy="256" r="256"/><path d="M301.6,151.2c15.6,0,36.3,0,36.3,0V97c0,0-21.8,0-51.4,0c-29.6,0-68.1,19-68.1,74.2c0,10.3,0,25.4,0,43   h-49.1v56.1h49.1c0,69.9,0,146,0,146h21.8h17.3H277c0,0,0-78.8,0-146h48.8l8.1-56.1H277c0-18.4,0-31.8,0-35.7   C277,160.1,286,151.2,301.6,151.2z"/></g></symbol><symbol viewBox="0 0 100 100" id="globe--white"><title>globe--white</title> <g transform="translate(0,-952.36218)"> <path d="M50,952.4c-16.8,0-31.6,8.3-40.7,20.9c0,0,0,0,0,0v0c-5.9,8.2-9.3,18.2-9.3,29
		c0,10.8,3.4,20.8,9.3,29l0,0c0,0,0,0,0,0c9.1,12.7,23.9,20.9,40.7,20.9s31.6-8.3,40.7-20.9c0,0,0,0,0,0c5.9-8.2,9.3-18.2,9.3-29
		c0-10.8-3.4-20.8-9.3-29c0,0,0,0,0,0C81.6,960.6,66.8,952.4,50,952.4L50,952.4z M48.8,954.8v18.5H30.6c0.7-1.7,1.4-3.4,2.2-4.9
		C37.1,960.6,42.3,955.5,48.8,954.8z M51.2,954.8c6.2,0.6,11.8,5.5,16,13.6c0.8,1.5,1.5,3.2,2.2,4.9H51.2L51.2,954.8z M40.2,955.7
		c-3.6,2.6-6.8,6.6-9.4,11.6c-1,1.9-1.9,3.9-2.7,6H12.2C19,964.4,28.9,958.1,40.2,955.7z M59.8,955.7c11.3,2.4,21.2,8.7,28,17.6
		H71.9c-0.8-2.1-1.7-4.2-2.7-6C66.6,962.3,63.4,958.3,59.8,955.7z M10.5,975.6h16.8c-1.6,4.9-2.8,10.4-3.5,16.3H3.5
		C4.8,986,7.2,980.5,10.5,975.6z M29.8,975.6h19.1v16.3H26.2C26.8,986,28.1,980.5,29.8,975.6z M51.2,975.6h19.1
		c1.7,4.9,2.9,10.4,3.6,16.3H51.2L51.2,975.6z M72.7,975.6h16.8c3.3,4.9,5.7,10.4,7,16.3H76.2C75.5,986,74.3,980.5,72.7,975.6z
		 M3,994.2h20.6c-0.2,2.7-0.4,5.4-0.4,8.1c0,2.8,0.1,5.5,0.4,8.1H3c-0.5-2.6-0.7-5.4-0.7-8.1C2.3,999.6,2.6,996.9,3,994.2z
		 M25.9,994.2h22.9v16.3H25.9c-0.2-2.6-0.4-5.4-0.4-8.1C25.6,999.6,25.7,996.9,25.9,994.2z M51.2,994.2h22.9
		c0.2,2.6,0.4,5.4,0.4,8.1c0,2.8-0.1,5.5-0.4,8.1H51.2V994.2z M76.4,994.2H97c0.5,2.6,0.7,5.4,0.7,8.1c0,2.8-0.2,5.5-0.7,8.1H76.4
		c0.2-2.7,0.4-5.4,0.4-8.1C76.7,999.6,76.6,996.9,76.4,994.2z M3.5,1012.8h20.3c0.6,5.9,1.8,11.4,3.5,16.3H10.5
		C7.2,1024.2,4.8,1018.7,3.5,1012.8z M26.2,1012.8h22.6v16.3h-19C28.1,1024.3,26.9,1018.8,26.2,1012.8z M51.2,1012.8h22.6
		c-0.7,5.9-1.9,11.4-3.6,16.3h-19V1012.8z M76.2,1012.8h20.3c-1.3,5.9-3.7,11.4-7,16.3H72.7C74.3,1024.2,75.5,1018.7,76.2,1012.8z
		 M12.2,1031.4h15.9c0.8,2.1,1.7,4.1,2.7,6c2.6,5,5.8,9,9.5,11.6C28.9,1046.7,19,1040.3,12.2,1031.4z M30.6,1031.4h18.2v18.5
		c-6.2-0.6-11.8-5.5-16-13.6C32.1,1034.8,31.3,1033.2,30.6,1031.4z M51.2,1031.4h18.2c-0.7,1.7-1.4,3.4-2.2,4.9
		c-4.2,8.1-9.8,13.1-16,13.6V1031.4z M71.9,1031.4h15.9c-6.8,8.9-16.7,15.2-28.1,17.6c3.7-2.6,6.9-6.6,9.5-11.6
		C70.2,1035.6,71.1,1033.6,71.9,1031.4z"/> </g> <text transform="matrix(1 0 0 1 0 115)">Created by Rockicon</text> <text transform="matrix(1 0 0 1 0 120)">from the Noun Project</text> </symbol><symbol viewBox="0 0 100 100" id="globe"><title>globe</title> <g transform="translate(0,-952.36218)"> <path d="M50,952.4c-16.8,0-31.6,8.3-40.7,20.9c0,0,0,0,0,0v0c-5.9,8.2-9.3,18.2-9.3,29c0,10.8,3.4,20.8,9.3,29l0,0c0,0,0,0,0,0
		c9.1,12.7,23.9,20.9,40.7,20.9s31.6-8.3,40.7-20.9c0,0,0,0,0,0c5.9-8.2,9.3-18.2,9.3-29c0-10.8-3.4-20.8-9.3-29c0,0,0,0,0,0
		C81.6,960.6,66.8,952.4,50,952.4L50,952.4z M48.8,954.8v18.5H30.6c0.7-1.7,1.4-3.4,2.2-4.9C37.1,960.6,42.3,955.5,48.8,954.8z
		 M51.2,954.8c6.2,0.6,11.8,5.5,16,13.6c0.8,1.5,1.5,3.2,2.2,4.9H51.2L51.2,954.8z M40.2,955.7c-3.6,2.6-6.8,6.6-9.4,11.6
		c-1,1.9-1.9,3.9-2.7,6H12.2C19,964.4,28.9,958.1,40.2,955.7z M59.8,955.7c11.3,2.4,21.2,8.7,28,17.6H71.9c-0.8-2.1-1.7-4.2-2.7-6
		C66.6,962.3,63.4,958.3,59.8,955.7z M10.5,975.6h16.8c-1.6,4.9-2.8,10.4-3.5,16.3H3.5C4.8,986,7.2,980.5,10.5,975.6z M29.8,975.6
		h19.1v16.3H26.2C26.8,986,28.1,980.5,29.8,975.6z M51.2,975.6h19.1c1.7,4.9,2.9,10.4,3.6,16.3H51.2L51.2,975.6z M72.7,975.6h16.8
		c3.3,4.9,5.7,10.4,7,16.3H76.2C75.5,986,74.3,980.5,72.7,975.6z M3,994.2h20.6c-0.2,2.7-0.4,5.4-0.4,8.1c0,2.8,0.1,5.5,0.4,8.1H3
		c-0.5-2.6-0.7-5.4-0.7-8.1C2.3,999.6,2.6,996.9,3,994.2z M25.9,994.2h22.9v16.3H25.9c-0.2-2.6-0.4-5.4-0.4-8.1
		C25.6,999.6,25.7,996.9,25.9,994.2z M51.2,994.2h22.9c0.2,2.6,0.4,5.4,0.4,8.1c0,2.8-0.1,5.5-0.4,8.1H51.2V994.2z M76.4,994.2H97
		c0.5,2.6,0.7,5.4,0.7,8.1c0,2.8-0.2,5.5-0.7,8.1H76.4c0.2-2.7,0.4-5.4,0.4-8.1C76.7,999.6,76.6,996.9,76.4,994.2z M3.5,1012.8h20.3
		c0.6,5.9,1.8,11.4,3.5,16.3H10.5C7.2,1024.2,4.8,1018.7,3.5,1012.8z M26.2,1012.8h22.6v16.3h-19
		C28.1,1024.3,26.9,1018.8,26.2,1012.8z M51.2,1012.8h22.6c-0.7,5.9-1.9,11.4-3.6,16.3h-19V1012.8z M76.2,1012.8h20.3
		c-1.3,5.9-3.7,11.4-7,16.3H72.7C74.3,1024.2,75.5,1018.7,76.2,1012.8z M12.2,1031.4h15.9c0.8,2.1,1.7,4.1,2.7,6
		c2.6,5,5.8,9,9.5,11.6C28.9,1046.7,19,1040.3,12.2,1031.4z M30.6,1031.4h18.2v18.5c-6.2-0.6-11.8-5.5-16-13.6
		C32.1,1034.8,31.3,1033.2,30.6,1031.4z M51.2,1031.4h18.2c-0.7,1.7-1.4,3.4-2.2,4.9c-4.2,8.1-9.8,13.1-16,13.6V1031.4z
		 M71.9,1031.4h15.9c-6.8,8.9-16.7,15.2-28.1,17.6c3.7-2.6,6.9-6.6,9.5-11.6C70.2,1035.6,71.1,1033.6,71.9,1031.4z"/> </g> <text transform="matrix(1 0 0 1 0 115)">Created by Rockicon</text> <text transform="matrix(1 0 0 1 0 120)">from the Noun Project</text> </symbol><symbol viewBox="0 0 512 512" id="google-plus svg icon"><title>google-plus svg icon</title><g><path clip-rule="evenodd" d="M256.23,512C396.81,512,512,396.81,512,256.23   C512,115.184,396.81,0,256.23,0C115.184,0,0,115.184,0,256.23C0,396.81,115.184,512,256.23,512L256.23,512z" fill-rule="evenodd"/><path clip-rule="evenodd" d="M274.369,280.26c-7.718-5.891-15.873-11.343-24.044-18.139   c-11.335-9.523-7.249-23.131,4.538-32.2c10.429-8.163,22.678-17.686,29.021-26.755c18.592-28.122,9.983-68.024-19.045-88.889h26.31   l28.56-18.139h-90.24c-65.306,0-114.737,24.942-110.652,85.709c2.719,41.723,40.816,64.399,87.976,59.408   c-9.976,15.881-3.172,31.754,8.616,44.44c-121.534,2.719-135.595,70.742-107.02,102.489c18.591,20.42,51.698,28.575,85.709,27.669   c40.355-0.453,82.538-14.515,101.583-41.73C312.006,350.549,322.88,316.99,274.369,280.26L274.369,280.26z M432.181,239.896   h-50.339v-48.073h-16.779v48.073h-52.15v16.334h52.15v47.604h16.779V256.23h50.339V239.896z M247.606,155.999   c11.343,29.028,9.077,63.04-21.771,72.563c-34.918,10.882-61.22-23.13-66.657-56.689c-4.086-24.49,1.813-48.526,25.396-56.689   C212.688,105.661,236.272,128.338,247.606,155.999L247.606,155.999z M136.501,339.659c6.352-33.105,46.706-41.714,93.873-41.714   c18.592,13.154,37.637,25.856,45.354,39.901c5.437,10.89,4.078,26.31-5.452,38.559c-11.78,14.498-31.739,19.951-50.784,21.311   c-35.371,1.813-64.853-12.249-77.546-28.122C135.142,360.532,134.236,350.096,136.501,339.659L136.501,339.659z" fill-rule="evenodd"/></g></symbol><symbol viewBox="0 0 24 24" id="iconmonstr-youtube-1"><title>iconmonstr-youtube-1</title><path d="M4.652 0h1.44l.988 3.702.916-3.702h1.454l-1.665 5.505v3.757h-1.431v-3.757l-1.702-5.505zm6.594 2.373c-1.119 0-1.861.74-1.861 1.835v3.349c0 1.204.629 1.831 1.861 1.831 1.022 0 1.826-.683 1.826-1.831v-3.349c0-1.069-.797-1.835-1.826-1.835zm.531 5.127c0 .372-.19.646-.532.646-.351 0-.554-.287-.554-.646v-3.179c0-.374.172-.651.529-.651.39 0 .557.269.557.651v3.179zm4.729-5.07v5.186c-.155.194-.5.512-.747.512-.271 0-.338-.186-.338-.46v-5.238h-1.27v5.71c0 .675.206 1.22.887 1.22.384 0 .918-.2 1.468-.853v.754h1.27v-6.831h-1.27zm2.203 13.858c-.448 0-.541.315-.541.763v.659h1.069v-.66c.001-.44-.092-.762-.528-.762zm-4.703.04c-.084.043-.167.109-.25.198v4.055c.099.106.194.182.287.229.197.1.485.107.619-.067.07-.092.105-.241.105-.449v-3.359c0-.22-.043-.386-.129-.5-.147-.193-.42-.214-.632-.107zm4.827-5.195c-2.604-.177-11.066-.177-13.666 0-2.814.192-3.146 1.892-3.167 6.367.021 4.467.35 6.175 3.167 6.367 2.6.177 11.062.177 13.666 0 2.814-.192 3.146-1.893 3.167-6.367-.021-4.467-.35-6.175-3.167-6.367zm-12.324 10.686h-1.363v-7.54h-1.41v-1.28h4.182v1.28h-1.41v7.54zm4.846 0h-1.21v-.718c-.223.265-.455.467-.696.605-.652.374-1.547.365-1.547-.955v-5.438h1.209v4.988c0 .262.063.438.322.438.236 0 .564-.303.711-.487v-4.939h1.21v6.506zm4.657-1.348c0 .805-.301 1.431-1.106 1.431-.443 0-.812-.162-1.149-.583v.5h-1.221v-8.82h1.221v2.84c.273-.333.644-.608 1.076-.608.886 0 1.18.749 1.18 1.631v3.609zm4.471-1.752h-2.314v1.228c0 .488.042.91.528.91.511 0 .541-.344.541-.91v-.452h1.245v.489c0 1.253-.538 2.013-1.813 2.013-1.155 0-1.746-.842-1.746-2.013v-2.921c0-1.129.746-1.914 1.837-1.914 1.161 0 1.721.738 1.721 1.914v1.656z"/></symbol><symbol viewBox="0 0 512 512" id="instagram-full--svg icon"><title>instagram-full--svg icon</title><g><g id="instagram-full--svg icon-Background_1_"><path d="M0,249.5v13.8C3.6,395.7,110.2,502,237.1,512h39C403.7,501.9,508.5,394.7,512,263.1v-13.6    C508.5,115.6,400.1,7,269.4,0.3C128.8-6.8,3.9,106,0,249.5z"/></g><g id="instagram-full--svg icon-Symbol"><g><path d="M257.2,128.6c40.8,0,45.6,0.1,61.8,0.9c14.9,0.6,22.9,3.2,28.3,5.3c7.1,2.8,12.2,6.2,17.5,11.6     c5.3,5.4,8.7,10.6,11.5,17.8c2.1,5.5,4.5,13.7,5.3,28.9c0.8,16.4,0.9,21.3,0.9,62.8s-0.1,46.4-0.9,62.8     c-0.6,15.1-3.1,23.4-5.3,28.9c-2.8,7.2-6.1,12.4-11.5,17.8c-5.3,5.4-10.4,8.8-17.5,11.6c-5.4,2.2-13.5,4.7-28.3,5.3     c-16.1,0.8-21,0.9-61.8,0.9s-45.6-0.1-61.8-0.9c-14.9-0.6-22.9-3.2-28.3-5.3c-7.1-2.8-12.2-6.2-17.5-11.6s-8.7-10.6-11.5-17.8     c-2.1-5.5-4.5-13.7-5.3-28.9c-0.8-16.4-0.9-21.3-0.9-62.8s0.1-46.4,0.9-62.8c0.6-15.1,3.1-23.4,5.3-28.9     c2.8-7.2,6.1-12.4,11.5-17.8c5.3-5.4,10.4-8.8,17.5-11.6c5.4-2.2,13.5-4.7,28.3-5.3C211.5,128.8,216.4,128.6,257.2,128.6      M257.2,100.6c-41.5,0-46.7,0.2-62.9,1s-27.4,3.4-37.1,7.2c-10.1,4-18.6,9.3-27,18c-8.5,8.7-13.7,17.3-17.6,27.6     c-3.8,9.8-6.4,21.2-7.1,37.7c-0.8,16.5-0.9,21.8-0.9,64s0.2,47.5,0.9,64c0.8,16.5,3.4,27.8,7.1,37.7c3.9,10.2,9.1,18.9,17.6,27.6     s17,14,27,18c9.7,3.9,20.9,6.5,37.1,7.2c16.3,0.8,21.5,1,62.9,1s46.7-0.2,62.9-1c16.2-0.8,27.4-3.4,37.1-7.2     c10.1-4,18.6-9.3,27-18c8.5-8.7,13.7-17.3,17.6-27.6c3.8-9.8,6.4-21.2,7.1-37.7c0.8-16.5,0.9-21.8,0.9-64s-0.2-47.5-0.9-64     c-0.8-16.5-3.4-27.8-7.1-37.7c-3.9-10.2-9.1-18.9-17.6-27.6s-17-14-27-18c-9.7-3.9-20.9-6.5-37.1-7.2     C303.9,100.8,298.6,100.6,257.2,100.6L257.2,100.6z"/><path d="M257.2,176.2c-43.4,0-78.4,35.7-78.4,79.8s35.1,79.8,78.4,79.8s78.4-35.7,78.4-79.8     S300.5,176.2,257.2,176.2z M257.2,307.8c-28.1,0-50.9-23.1-50.9-51.8s22.8-51.8,50.9-51.8s50.9,23.1,50.9,51.8     C308.1,284.7,285.3,307.8,257.2,307.8z"/><ellipse cx="338.7" cy="173" rx="18.3" ry="18.6"/></g></g></g></symbol><symbol viewBox="0 0 100 100" id="intagram-icon--gray-mid"><title>intagram-icon--gray-mid</title> <g transform="translate(0,-952.36218)"> <path d="M24.3,952.4C10.9,952.4,0,963.3,0,976.6v51.4c0,13.4,10.9,24.3,24.3,24.3h51.4
		c13.4,0,24.3-10.9,24.3-24.3v-51.4c0-13.4-10.9-24.3-24.3-24.3H24.3z M24.3,960.9h51.4c8.8,0,15.7,6.9,15.7,15.7v51.4
		c0,8.8-6.9,15.7-15.7,15.7H24.3c-8.8,0-15.7-6.9-15.7-15.7v-51.4C8.6,967.9,15.5,960.9,24.3,960.9z M78.6,969.5
		c-3.2,0-5.7,2.6-5.7,5.7c0,3.2,2.6,5.7,5.7,5.7c3.2,0,5.7-2.6,5.7-5.7C84.3,972.1,81.7,969.5,78.6,969.5z M50,978.1
		c-13.4,0-24.3,10.9-24.3,24.3s10.9,24.3,24.3,24.3s24.3-10.9,24.3-24.3C74.3,989,63.4,978.1,50,978.1z M50,986.6
		c8.7,0,15.7,7,15.7,15.7s-7,15.7-15.7,15.7s-15.7-7-15.7-15.7C34.3,993.6,41.3,986.6,50,986.6z"/> </g> <text transform="matrix(1 0 0 1 0 115)">Created by Three Six Five</text> <text transform="matrix(1 0 0 1 0 120)">from the Noun Project</text> </symbol><symbol viewBox="0 0 100 100" id="intagram-icon"><title>intagram-icon</title> <g transform="translate(0,-952.36218)"> <path d="M24.3,952.4C10.9,952.4,0,963.3,0,976.6v51.4c0,13.4,10.9,24.3,24.3,24.3h51.4c13.4,0,24.3-10.9,24.3-24.3v-51.4
		c0-13.4-10.9-24.3-24.3-24.3H24.3z M24.3,960.9h51.4c8.8,0,15.7,6.9,15.7,15.7v51.4c0,8.8-6.9,15.7-15.7,15.7H24.3
		c-8.8,0-15.7-6.9-15.7-15.7v-51.4C8.6,967.9,15.5,960.9,24.3,960.9z M78.6,969.5c-3.2,0-5.7,2.6-5.7,5.7c0,3.2,2.6,5.7,5.7,5.7
		c3.2,0,5.7-2.6,5.7-5.7C84.3,972.1,81.7,969.5,78.6,969.5z M50,978.1c-13.4,0-24.3,10.9-24.3,24.3s10.9,24.3,24.3,24.3
		s24.3-10.9,24.3-24.3C74.3,989,63.4,978.1,50,978.1z M50,986.6c8.7,0,15.7,7,15.7,15.7s-7,15.7-15.7,15.7s-15.7-7-15.7-15.7
		C34.3,993.6,41.3,986.6,50,986.6z"/> </g> <text transform="matrix(1 0 0 1 0 115)">Created by Three Six Five</text> <text transform="matrix(1 0 0 1 0 120)">from the Noun Project</text> </symbol><symbol viewBox="0 0 100 100" id="menu-dots--white"><title>menu-dots--white</title> <path d="M50,0C22.3,0,0,22.5,0,50s22.3,50,50,50s50-22.3,50-50S77.7,0,50,0z M50,94.1
	C25.7,94.1,5.9,74.3,5.9,50S25.7,5.9,50,5.9S94.1,25.7,94.1,50S74.3,94.1,50,94.1z"/> <circle cx="25.7" cy="50" r="8.3"/> <circle cx="50" cy="50" r="8.3"/> <circle cx="74.3" cy="50" r="8.3"/> <text transform="matrix(1 0 0 1 0 115)">Created by Alina Oleynik</text> <text transform="matrix(1 0 0 1 0 120)">from the Noun Project</text> </symbol><symbol viewBox="0 0 100 100" id="menu-dots"><title>menu-dots</title> <path d="M50,0C22.3,0,0,22.5,0,50s22.3,50,50,50s50-22.3,50-50S77.7,0,50,0z M50,94.1C25.7,94.1,5.9,74.3,5.9,50S25.7,5.9,50,5.9
	S94.1,25.7,94.1,50S74.3,94.1,50,94.1z"/> <circle cx="25.7" cy="50" r="8.3"/> <circle cx="50" cy="50" r="8.3"/> <circle cx="74.3" cy="50" r="8.3"/> <text transform="matrix(1 0 0 1 0 115)">Created by Alina Oleynik</text> <text transform="matrix(1 0 0 1 0 120)">from the Noun Project</text> </symbol><symbol viewBox="0 0 100 100" id="menu"><title>menu</title>  <g id="menu-Layer_1"> <g> <rect x="2.5" y="10.7" width="95" height="14"/> <rect x="2.5" y="43" width="95" height="14"/> <rect x="2.5" y="75.3" width="95" height="14"/> </g> <text transform="matrix(1 0 0 1 0 115)">Created by Adrien Coquet</text> <text transform="matrix(1 0 0 1 0 120)">from the Noun Project</text> </g> </symbol><symbol viewBox="0 0 100 100" id="minus_icon--black"><title>minus_icon--black</title> <g transform="translate(0,-952.36218)"> <path d="M12.7,999.4c-1.7,0.1-2.9,1.5-2.8,3.2s1.5,2.9,3.2,2.8h74c1.7,0,3-1.3,3-3s-1.3-3-3-3H87H13
		C12.9,999.4,12.8,999.4,12.7,999.4z"/> </g> <text transform="matrix(1 0 0 1 0 115)">Created by Icons Bazaar</text> <text transform="matrix(1 0 0 1 0 120)">from the Noun Project</text> </symbol><symbol viewBox="0 0 100 100" id="minus_icon--som-green"><title>minus_icon--som-green</title> <g transform="translate(0,-952.36218)"> <path d="M12.7,999.4c-1.7,0.1-2.9,1.5-2.8,3.2s1.5,2.9,3.2,2.8h74c1.7,0,3-1.3,3-3s-1.3-3-3-3H87H13
		C12.9,999.4,12.8,999.4,12.7,999.4z"/> </g> <text transform="matrix(1 0 0 1 0 115)">Created by Icons Bazaar</text> <text transform="matrix(1 0 0 1 0 120)">from the Noun Project</text> </symbol><symbol viewBox="0 0 100 100" id="minus_icon"><title>minus_icon</title> <style type="text/css"> .st0{fill:#FFFFFF;} </style> <g transform="translate(0,-952.36218)"> <path class="st0" d="M12.7,999.4c-1.7,0.1-2.9,1.5-2.8,3.2s1.5,2.9,3.2,2.8h74c1.7,0,3-1.3,3-3s-1.3-3-3-3H87H13
		C12.9,999.4,12.8,999.4,12.7,999.4z"/> </g> <text transform="matrix(1 0 0 1 0 115)">Created by Icons Bazaar</text> <text transform="matrix(1 0 0 1 0 120)">from the Noun Project</text> </symbol><symbol viewBox="0 0 100 97" id="next_arrow--black"><title>next_arrow--black</title> <g> <path d="M35,88.5c-0.8,0-1.5-0.3-2.1-0.9c-1.2-1.2-1.2-3.1,0-4.2
		l35.7-35.7l-36-36c-1.2-1.2-1.2-3.1,0-4.2c1.2-1.2,3.1-1.2,4.2,0L77,47.7L37.2,87.6C36.6,88.2,35.8,88.5,35,88.5z"/> </g> </symbol><symbol viewBox="0 0 100 97" id="next_arrow"><title>next_arrow</title> <style type="text/css"> .st0{fill:#FFFFFF;stroke:#FFFFFF;stroke-miterlimit:10;} </style> <g> <path class="st0" d="M35,88.5c-0.8,0-1.5-0.3-2.1-0.9c-1.2-1.2-1.2-3.1,0-4.2l35.7-35.7l-36-36c-1.2-1.2-1.2-3.1,0-4.2
		c1.2-1.2,3.1-1.2,4.2,0L77,47.7L37.2,87.6C36.6,88.2,35.8,88.5,35,88.5z"/> </g> </symbol><symbol viewBox="0 0 100 100" id="pattern-1"><title>pattern-1</title> <style type="text/css"> .st0{display:none;enable-background:new ;} .st1{display:inline;} </style> <g> <path d="M92.3,56.6H58.8L52.2,50l6.6-6.6h33.5V9.9l7.7-7.7L97.8,0l-7.7,7.7H56.6v33.5L50,47.8l-6.6-6.6V7.7H9.9L2.2,0L0,2.2
		l7.7,7.7v33.5h33.5l6.6,6.6l-6.6,6.6H7.7v33.5L0,97.8l2.2,2.2l7.7-7.7h33.5V58.8l6.6-6.6l6.6,6.6v33.5h33.5l7.7,7.7l2.2-2.2
		l-7.7-7.7L92.3,56.6L92.3,56.6z M59.7,10.8h29.6v29.6H61.8l13.7-13.7l-2.2-2.2L59.7,38.2V10.8z M10.8,40.3V10.8h29.6v27.4
		L26.6,24.5l-2.2,2.2l13.7,13.7C38.2,40.3,10.8,40.3,10.8,40.3z M40.3,89.2H10.8V59.7h27.4L24.5,73.4l2.2,2.2l13.7-13.7
		C40.3,61.8,40.3,89.2,40.3,89.2z M89.2,89.2H59.7V61.8l13.7,13.7l2.2-2.2L61.8,59.7h27.4V89.2z"/> </g> <text transform="matrix(1 0 0 1 0 115)" class="st0">Created by Yu luck</text> <text transform="matrix(1 0 0 1 0 120)" class="st0">from the Noun Project</text> </symbol><symbol viewBox="0 0 100 101" id="pattern-2-white"><title>pattern-2-white</title> <style type="text/css"> .st0{fill:#FFFFFF;} .st1{display:none;enable-background:new ;} .st2{display:inline;} </style> <path class="st0" d="M50,42.3c0-2.5-5.6-8.2-7.8-7.8C44.4,34.1,50,26.6,50,24c0,2.5,5.6,10.1,7.8,10.4C55.6,34.1,50,39.8,50,42.3z
	 M50,45.9c0-0.3-0.5-1.1-0.5-1.1s-6-12.8-24.9-2.2c-4.9,2.7-13.9,9-22.4,1.3c-0.3-0.3-0.6-1.1-1.7-0.4c-0.3,0.2-0.7,0.6,0,1.7
	c0,0,9.1,11.5,23.8,5c0,0,0.5-0.4,0.8,0.8c0.1,0.6,2.1,7.1,8.2,5.5c0,0,1.9-0.5,1-1.5c0,0-5.4-5.1-0.4-10.5C36.1,42,44.6,41,47.1,48
	c1.1,3-0.4,11.8-8.1,9.8c-0.7-0.2-2-1.7-2.8-1.2c0,0-1.1,0.6-0.3,2.2c1,2,2.8,5.3,7.8,4.4c0,0,1.6-0.1,2.6,0.8C48.2,66,50,76,50,76
	s1.8-10,3.6-11.8c1-1,2.6-0.8,2.6-0.8c5,0.9,6.7-2.4,7.8-4.4c0.9-1.6-0.3-2.2-0.3-2.2c-0.8-0.5-2,1-2.8,1.2
	c-7.7,1.9-9.1-6.8-8.1-9.8c2.5-7,11-6,13.4-3.4c4.9,5.3-0.4,10.5-0.4,10.5c-0.9,1,1,1.5,1,1.5c6.1,1.6,8.1-5,8.2-5.5
	c0.2-1.3,0.8-0.9,0.8-0.9c14.7,6.5,23.8-5,23.8-5c0.7-1.1,0.3-1.4,0-1.7c-1.1-0.7-1.3,0.2-1.7,0.4c-8.5,7.6-17.5,1.4-22.4-1.3
	c-19-10.6-24.9,2.2-24.9,2.2C50,45.8,50,46.2,50,45.9z"/> <text transform="matrix(1 0 0 1 0 115)" class="st1">Created by Bettina Tan</text> <text transform="matrix(1 0 0 1 0 120)" class="st1">from the Noun Project</text> </symbol><symbol viewBox="0 0 100 101" id="pattern-2"><title>pattern-2</title> <style type="text/css"> .st0{display:none;enable-background:new ;} .st1{display:inline;} </style> <path d="M50,42.3c0-2.5-5.6-8.2-7.8-7.8C44.4,34.1,50,26.6,50,24c0,2.5,5.6,10.1,7.8,10.4C55.6,34.1,50,39.8,50,42.3z M50,45.9
	c0-0.3-0.5-1.1-0.5-1.1s-6-12.8-24.9-2.2c-4.9,2.7-13.9,9-22.4,1.3c-0.3-0.3-0.6-1.1-1.7-0.4c-0.3,0.2-0.7,0.6,0,1.7
	c0,0,9.1,11.5,23.8,5c0,0,0.5-0.4,0.8,0.8c0.1,0.6,2.1,7.1,8.2,5.5c0,0,1.9-0.5,1-1.5c0,0-5.4-5.1-0.4-10.5C36.1,42,44.6,41,47.1,48
	c1.1,3-0.4,11.8-8.1,9.8c-0.7-0.2-2-1.7-2.8-1.2c0,0-1.1,0.6-0.3,2.2c1,2,2.8,5.3,7.8,4.4c0,0,1.6-0.1,2.6,0.8C48.2,66,50,76,50,76
	s1.8-10,3.6-11.8c1-1,2.6-0.8,2.6-0.8c5,0.9,6.7-2.4,7.8-4.4c0.9-1.6-0.3-2.2-0.3-2.2c-0.8-0.5-2,1-2.8,1.2
	c-7.7,1.9-9.1-6.8-8.1-9.8c2.5-7,11-6,13.4-3.4c4.9,5.3-0.4,10.5-0.4,10.5c-0.9,1,1,1.5,1,1.5c6.1,1.6,8.1-5,8.2-5.5
	c0.2-1.3,0.8-0.9,0.8-0.9c14.7,6.5,23.8-5,23.8-5c0.7-1.1,0.3-1.4,0-1.7c-1.1-0.7-1.3,0.2-1.7,0.4c-8.5,7.6-17.5,1.4-22.4-1.3
	c-19-10.6-24.9,2.2-24.9,2.2C50,45.8,50,46.2,50,45.9z"/> <text transform="matrix(1 0 0 1 0 115)" class="st0">Created by Bettina Tan</text> <text transform="matrix(1 0 0 1 0 120)" class="st0">from the Noun Project</text> </symbol><symbol viewBox="0 0 100.5 103" id="play_icon_Yeong_Rong_Kim_nero"><title>play_icon_Yeong_Rong_Kim_nero</title> <polygon points="
	18.6,1.5 81.9,51.5 18.6,101.5 "/> </symbol><symbol viewBox="0 0 100.5 103" id="play_icon_Yeong_Rong_Kim_red"><title>play_icon_Yeong_Rong_Kim_red</title> <polygon points="
	18.6,1.5 81.9,51.5 18.6,101.5 "/> </symbol><symbol viewBox="0 0 100.5 103" id="play_icon_Yeong_Rong_Kim_white"><title>play_icon_Yeong_Rong_Kim_white</title> <style type="text/css"> .st0{fill:#FFFFFF;stroke:#FFFFFF;stroke-width:4.6154;stroke-linecap:round;stroke-linejoin:round;stroke-miterlimit:10;} </style> <polygon class="st0" points="18.6,1.5 81.9,51.5 18.6,101.5 "/> </symbol><symbol viewBox="0 0 100 100" id="plus_icon--black"><title>plus_icon--black</title> <g transform="translate(0,-952.36218)"> <path d="M50,952.4c-2.1,0-3.7,1.7-3.7,3.7l0,0v42.4H3.9c-0.1,0-0.2,0-0.4,0c-2.1,0.1-3.6,1.9-3.5,4
		s1.9,3.6,4,3.5l0,0h42.4v42.4c0,2.1,1.6,3.7,3.7,3.7s3.7-1.6,3.7-3.7v-0.1v-42.4h42.4c2.1,0,3.7-1.6,3.7-3.7c0-2.1-1.6-3.7-3.7-3.7
		h-0.1H53.7V956C53.7,954.2,52.1,952.4,50,952.4L50,952.4z"/> </g> <text transform="matrix(1 0 0 1 0 115)">Created by Icons Bazaar</text> <text transform="matrix(1 0 0 1 0 120)">from the Noun Project</text> </symbol><symbol viewBox="0 0 100 100" id="plus_icon--som-green"><title>plus_icon--som-green</title> <g transform="translate(0,-952.36218)"> <path d="M50,952.4c-2.1,0-3.7,1.7-3.7,3.7l0,0v42.4H3.9c-0.1,0-0.2,0-0.4,0c-2.1,0.1-3.6,1.9-3.5,4
		s1.9,3.6,4,3.5l0,0h42.4v42.4c0,2.1,1.6,3.7,3.7,3.7s3.7-1.6,3.7-3.7v-0.1v-42.4h42.4c2.1,0,3.7-1.6,3.7-3.7c0-2.1-1.6-3.7-3.7-3.7
		h-0.1H53.7V956C53.7,954.2,52.1,952.4,50,952.4L50,952.4z"/> </g> <text transform="matrix(1 0 0 1 0 115)">Created by Icons Bazaar</text> <text transform="matrix(1 0 0 1 0 120)">from the Noun Project</text> </symbol><symbol viewBox="0 0 100 100" id="plus_icon"><title>plus_icon</title> <style type="text/css"> .st0{fill:#FFFFFF;} </style> <g transform="translate(0,-952.36218)"> <path class="st0" d="M50,952.4c-2.1,0-3.7,1.7-3.7,3.7l0,0v42.4H3.9c-0.1,0-0.2,0-0.4,0c-2.1,0.1-3.6,1.9-3.5,4s1.9,3.6,4,3.5l0,0
		h42.4v42.4c0,2.1,1.6,3.7,3.7,3.7s3.7-1.6,3.7-3.7v-0.1v-42.4h42.4c2.1,0,3.7-1.6,3.7-3.7c0-2.1-1.6-3.7-3.7-3.7h-0.1H53.7V956
		C53.7,954.2,52.1,952.4,50,952.4L50,952.4z"/> </g> <text transform="matrix(1 0 0 1 0 115)">Created by Icons Bazaar</text> <text transform="matrix(1 0 0 1 0 120)">from the Noun Project</text> </symbol><symbol viewBox="0 0 100 100" id="search-2"><title>se r1</title>  <path d="M24,38.2c0.1-21,17.2-37.9,38.2-37.8s37.9,17.2,37.8,38.2c-0.1,20.9-17.1,37.8-38,37.8C41,76.4,24,59.3,24,38.2z M34.2,38.2
	C34.3,53.6,46.8,66,62.2,65.8C77.6,65.7,90,53.2,89.8,37.8C89.7,22.5,77.3,10.2,62,10.1C46.6,10.2,34.1,22.8,34.2,38.2L34.2,38.2z"/> <rect x="-3.6" y="73.9" transform="matrix(0.7086 -0.7056 0.7056 0.7086 -49.5804 37.8907)" width="49.4" height="10.2"/> <text transform="matrix(1 0 0 1 0 115)">Created by i cons</text> <text transform="matrix(1 0 0 1 0 120)">from the Noun Project</text> </symbol><symbol viewBox="0 0 100 100" id="search"><title>se1</title>  <path d="M39,78.5c-21.7,0.1-39.3-17.3-39.5-39S16.9,0.1,38.5,0S77.9,17.3,78,39c0,0.1,0,0.2,0,0.2C78,60.8,60.6,78.4,39,78.5z
	 M39,15.5C25.9,15.3,15.1,25.9,15,39c-0.1,13.1,10.4,23.9,23.6,24c13.1,0.1,23.9-10.4,24-23.6c0-0.1,0-0.2,0-0.2
	C62.6,26.1,52.1,15.5,39,15.5L39,15.5z"/> <rect x="70.2" y="54.5" transform="matrix(0.7056 -0.7086 0.7086 0.7056 -32.3037 78.1514)" width="15.4" height="47"/> <text transform="matrix(1 0 0 1 0 115)">Created by i cons</text> <text transform="matrix(1 0 0 1 0 120)">from the Noun Project</text> </symbol><symbol viewBox="0 0 100 100" id="separator-pattern"><title>separator-pattern</title> <style type="text/css"> .st0{display:none;enable-background:new ;} .st1{display:inline;} </style> <path d="M41.4,42.5c0,2.2-2.8,5.5-5.4,6.8c-1-0.4-1.8-1-1.8-1.5c0,0.5-1.2,1.3-2.4,1.7c-1.8-0.1-3.5-0.2-5.3-0.2
	c-3-0.1-5.8,0.1-8.8,0.1C11.8,49.5,5.6,49.6,0,49.8v0.1c5.6,0.2,11.8,0.3,17.7,0.4c3,0.1,5.9,0.2,8.9,0.1c1.8-0.1,3.5-0.1,5.3-0.2
	c1.3,0.4,2.4,1.2,2.4,1.7c0-0.5,0.8-1,1.8-1.5c2.6,1.3,5.4,4.6,5.4,6.8c0-2.9,4.5-7.4,7.4-7.4C46,49.9,41.4,45.3,41.4,42.5z"/> <path d="M82.3,49.4c-3-0.1-5.9-0.2-8.9-0.1c-1.8,0.1-3.5,0.1-5.3,0.2c-1.3-0.4-2.4-1.2-2.4-1.7c0,0.5-0.8,1-1.8,1.5
	c-2.6-1.3-5.4-4.6-5.4-6.8c0,2.9-4.5,7.4-7.4,7.4c2.9,0,7.4,4.5,7.4,7.4c0-2.2,2.8-5.5,5.4-6.8c1,0.4,1.8,1,1.8,1.5
	c0-0.5,1.2-1.3,2.4-1.7c1.8,0.1,3.5,0.2,5.3,0.2c3,0.1,5.8-0.1,8.8-0.1c5.9-0.1,12.2-0.2,17.7-0.4v-0.1
	C94.4,49.6,88.2,49.5,82.3,49.4z"/> <circle cx="50" cy="49.9" r="1.9"/> <text transform="matrix(1 0 0 1 0 115)" class="st0">Created by Bettina Tan</text> <text transform="matrix(1 0 0 1 0 120)" class="st0">from the Noun Project</text> </symbol><symbol viewBox="0 0 100 83.641" id="square-arrow"><title>square-arrow</title><polygon points="58.263,0.056 100,41.85 58.263,83.641 30.662,83.641 62.438,51.866 0,51.866 0,31.611 62.213,31.611 30.605,0 
	58.263,0.056 "/></symbol><symbol viewBox="0 0 32 32" id="twitter svg icon"><title>twitter svg icon</title><g><g id="twitter svg icon-Twitter_1_"><g id="twitter svg icon-Twitter"><circle cx="16" cy="16" id="twitter svg icon-BG" r="16"/><path d="M22.1,12.1c0.7-0.4,1.2-1.1,1.4-1.8c-0.6,0.4-1.3,0.6-2.1,0.8        c-0.6-0.6-1.5-1-2.4-1c-1.8,0-3.3,1.5-3.3,3.3c0,0.3,0,0.5,0.1,0.7c-2.7-0.1-5.2-1.4-6.8-3.4c-0.3,0.5-0.4,1.1-0.4,1.7        c0,1.1,0.6,2.1,1.5,2.7c-0.5,0-1-0.2-1.5-0.4v0c0,1.6,1.1,2.9,2.6,3.2C11,17.9,10.7,18,10.4,18c-0.2,0-0.4,0-0.6-0.1        c0.4,1.3,1.6,2.3,3.1,2.3c-1.1,0.9-2.5,1.4-4.1,1.4c-0.3,0-0.5,0-0.8,0c1.4,0.9,3,1.4,4.7,1.5h0.8c5.7-0.3,8.9-5.1,8.9-9.3        c0-0.1,0-0.3,0-0.4c0.6-0.5,1.2-1,1.6-1.7v0C23.4,11.8,22.8,12,22.1,12.1z" id="twitter svg icon-Bird"/></g></g></g></symbol><symbol viewBox="0 0 48 48" id="twitter-icon--gray-mid"><title>twitter-icon--gray-mid</title> <path d="M24,0C10.7,0,0,10.7,0,24s10.7,24,24,24c13.3,0,24-10.7,24-24S37.3,0,24,0z M36.3,15.6
	c0,0,0.1-0.1,0.1-0.1C36.4,15.5,36.4,15.5,36.3,15.6c0.1,0.1,0.1,0.2,0.1,0.2c1.3,0.3,2.3,0.6,2.3,0.8c0,0.2-0.6,0.5-1.5,0.8
	c0.4,0.9,0.7,1.9,0.9,2.9c0.7,3.2,0.3,6.2-0.7,8.4C35.6,34.7,30.1,39,23.6,39c-6.1,0-11.3-3.8-13.4-9.2c2.4,1.8,5.3,2.8,8.5,2.8
	c1.8,0,3.5-0.3,5.1-0.9c-1.7,0.1-3.5-0.1-5.2-0.8c-5.8-2.2-6.9-9.1-6.9-9.1c-0.4-2.8,0.2-2.9,1.4-0.4c0,0,1.4,3,5.5,4.6
	c0.1,0,0.2,0.1,0.3,0.1c-0.1,0-0.1-0.1-0.2-0.1c-5.4-2.9-5.6-9.9-5.6-9.9c-0.1-2.8,0.6-2.9,1.4-0.2c0,0,1,3.2,4.9,5.2
	c2,1,4.1,1.5,6.1,1.4c-1-5.4,0.9-10.2,4.2-10.9c1.5-0.3,3.1,0.3,4.4,1.5c0.4-0.1,0.8,0,1.3,0c1.7,0.3,3.1,0.7,3.1,0.9
	c0,0.2-1.1,0.8-2.6,1.2C36.1,15.4,36.2,15.5,36.3,15.6z"/> <text transform="matrix(1 0 0 1 0 63)">Created by aguycalledgary</text> <text transform="matrix(1 0 0 1 0 68)">from the Noun Project</text> </symbol><symbol viewBox="0 0 48 47.5" id="twitter-icon"><title>twitter-icon</title> <path d="M24,0C10.7,0,0,10.7,0,24s10.7,24,24,24c13.3,0,24-10.7,24-24S37.3,0,24,0z M36.3,15.6
	c0,0,0.1-0.1,0.1-0.1C36.4,15.5,36.4,15.5,36.3,15.6c0.1,0.1,0.1,0.2,0.1,0.2c1.3,0.3,2.3,0.6,2.3,0.8c0,0.2-0.6,0.5-1.5,0.8
	c0.4,0.9,0.7,1.9,0.9,2.9c0.7,3.2,0.3,6.2-0.7,8.4C35.6,34.7,30.1,39,23.6,39c-6.1,0-11.3-3.8-13.4-9.2c2.4,1.8,5.3,2.8,8.5,2.8
	c1.8,0,3.5-0.3,5.1-0.9c-1.7,0.1-3.5-0.1-5.2-0.8c-5.8-2.2-6.9-9.1-6.9-9.1c-0.4-2.8,0.2-2.9,1.4-0.4c0,0,1.4,3,5.5,4.6
	c0.1,0,0.2,0.1,0.3,0.1c-0.1,0-0.1-0.1-0.2-0.1c-5.4-2.9-5.6-9.9-5.6-9.9c-0.1-2.8,0.6-2.9,1.4-0.2c0,0,1,3.2,4.9,5.2
	c2,1,4.1,1.5,6.1,1.4c-1-5.4,0.9-10.2,4.2-10.9c1.5-0.3,3.1,0.3,4.4,1.5c0.4-0.1,0.8,0,1.3,0c1.7,0.3,3.1,0.7,3.1,0.9
	c0,0.2-1.1,0.8-2.6,1.2C36.1,15.4,36.2,15.5,36.3,15.6z"/> <text transform="matrix(1 0 0 1 0 63)">Created by aguycalledgary</text> <text transform="matrix(1 0 0 1 0 68)">from the Noun Project</text> </symbol><symbol viewBox="0 0 612 612" id="twitter-logo-silhouette"><title>twitter-logo-silhouette</title> <g> <g> <path d="M612,116.258c-22.525,9.981-46.694,16.75-72.088,19.772c25.929-15.527,45.777-40.155,55.184-69.411
			c-24.322,14.379-51.169,24.82-79.775,30.48c-22.907-24.437-55.49-39.658-91.63-39.658c-69.334,0-125.551,56.217-125.551,125.513
			c0,9.828,1.109,19.427,3.251,28.606C197.065,206.32,104.556,156.337,42.641,80.386c-10.823,18.51-16.98,40.078-16.98,63.101
			c0,43.559,22.181,81.993,55.835,104.479c-20.575-0.688-39.926-6.348-56.867-15.756v1.568c0,60.806,43.291,111.554,100.693,123.104
			c-10.517,2.83-21.607,4.398-33.08,4.398c-8.107,0-15.947-0.803-23.634-2.333c15.985,49.907,62.336,86.199,117.253,87.194
			c-42.947,33.654-97.099,53.655-155.916,53.655c-10.134,0-20.116-0.612-29.944-1.721c55.567,35.681,121.536,56.485,192.438,56.485
			c230.948,0,357.188-191.291,357.188-357.188l-0.421-16.253C573.872,163.526,595.211,141.422,612,116.258z"/> </g> </g>                </symbol><symbol viewBox="0 0 100 100" id="views--gray-mid"><title>views--gray-mid</title> <path d="M50,22C31.5,22,15.2,33.1,8.3,50.3L8,51l0.3,0.7C15.2,68.9,31.5,80,50,80s34.8-11.1,41.7-28.3L92,51
	l-0.3-0.7C84.8,33.1,68.5,22,50,22z M50,76c-16.6,0-31.2-9.8-37.6-25c6.4-15.2,21-25,37.6-25s31.2,9.8,37.6,25
	C81.2,66.2,66.6,76,50,76z"/> <path d="M50,28c-12.7,0-23,10.3-23,23s10.3,23,23,23s23-10.3,23-23S62.7,28,50,28z M50,67v-4
	c6.6,0,12-5.4,12-12h4C66,59.8,58.8,67,50,67z"/> <text transform="matrix(1 0 0 1 0 115)">Created by Trident</text> <text transform="matrix(1 0 0 1 0 120)">from the Noun Project</text> </symbol><symbol viewBox="0 0 100 125" id="views"><title>views</title> <path d="M50,22C31.5,22,15.2,33.1,8.3,50.3L8,51l0.3,0.7C15.2,68.9,31.5,80,50,80s34.8-11.1,41.7-28.3L92,51l-0.3-0.7
	C84.8,33.1,68.5,22,50,22z M50,76c-16.6,0-31.2-9.8-37.6-25c6.4-15.2,21-25,37.6-25s31.2,9.8,37.6,25C81.2,66.2,66.6,76,50,76z"/> <path d="M50,28c-12.7,0-23,10.3-23,23s10.3,23,23,23s23-10.3,23-23S62.7,28,50,28z M50,67v-4
	c6.6,0,12-5.4,12-12h4C66,59.8,58.8,67,50,67z"/> <text transform="matrix(1 0 0 1 0 115)">Created by Trident</text> <text transform="matrix(1 0 0 1 0 120)">from the Noun Project</text> </symbol><symbol viewBox="0 0 100 100" id="x-icon"><title>x-icon</title> <polygon points="96.5,20.5 79.5,3.5 50,33 20.5,3.5 3.5,20.5 33,50 3.5,79.5 20.5,96.5 50,67 79.5,96.5 96.5,79.5 67,50 "/> <text transform="matrix(1 0 0 1 0 115)">Created by Wawan Hermawan</text> <text transform="matrix(1 0 0 1 0 120)">from the Noun Project</text> </symbol><symbol viewBox="0 0 512 512" id="youtub-icons--round-red"><title>youtub-icons--round-red</title><g><path d="M512,256c0,141.4-114.6,256-256,256C114.6,512,0,397.4,0,256C0,114.6,114.6,0,256,0   C397.4,0,512,114.6,512,256z"/><g><path d="M391.1,194.6c-2.3-19.9-7.1-25.7-10.5-28.4c-5.4-4.2-15.2-5.7-28.3-6.6c-21-1.4-56.7-2.3-95.2-2.3    c-38.6,0-74.2,0.8-95.2,2.3c-13.1,0.9-22.9,2.4-28.3,6.6c-3.4,2.7-8.1,8.5-10.5,28.4c-3.4,28.7-3.4,94.1,0,122.8    c2.4,19.9,7.1,25.7,10.5,28.4c5.4,4.2,15.2,5.7,28.3,6.6c21,1.4,56.6,2.3,95.2,2.3c38.6,0,74.2-0.9,95.2-2.3    c13.1-0.9,22.9-2.4,28.3-6.6c3.4-2.6,8.1-8.5,10.5-28.4C394.5,288.7,394.5,223.3,391.1,194.6z M224.1,298.9V213l82.4,42.9    L224.1,298.9z"/></g></g></symbol></svg>