<?xml version="1.0" encoding="utf-8"?>
<!-- Generator: Adobe Illustrator 22.0.0, SVG Export Plug-In . SVG Version: 6.00 Build 0)  -->
<svg version="1.1" id="Layer_1" xmlns="http://www.w3.org/2000/svg" xmlns:xlink="http://www.w3.org/1999/xlink" x="0px" y="0px"
	 viewBox="0 0 100 101" style="enable-background:new 0 0 100 101;" xml:space="preserve"> 
<g>
    <title>360 degrees icon</title>
	<path d="M2.5,50.5c1.4,0,2.5-1.1,2.5-2.5c0-11.3,20-20.8,43.4-20.8c4.7,0,9.4,0.4,13.8,1.1l-4.3,2.3l6.2,1.5
		c2.5,0.6,4.9,1.2,7.3,1.8c5.4,1.5,10.8,3.1,15.8,4.8l7.8,2.7l-5-6.4c-0.6-0.9-1.3-1.6-1.8-2.3c-3-3.6-6.3-7-10-10.4l-1.2-1
		l-1.4,0.5c-2.1,0.9-4.3,1.8-6.3,2.8c-6.4-1.6-13.4-2.5-20.7-2.5C21.4,22.3,0.1,33.6,0.1,48C0.1,49.5,1.1,50.5,2.5,50.5z"/>
	<path d="M51.5,72.7c-4.7,0-9.4-0.4-13.8-1.1l4.3-2.3l-6.2-1.5c-2.5-0.6-4.9-1.2-7.3-1.8c-5.5-1.5-10.8-3.1-15.8-4.8l-7.6-2.8l5,6.5
		c0.6,0.9,1.3,1.6,1.8,2.3c3,3.6,6.3,7,10,10.4l1.2,1l1.4-0.5c2.1-0.9,4.3-1.8,6.3-2.8c6.4,1.6,13.4,2.5,20.7,2.5
		C78.7,77.7,100,66.4,100,52c0-1.4-1.1-2.5-2.5-2.5c-1.4,0-2.5,1.1-2.5,2.5C95,63.1,75.1,72.7,51.5,72.7z"/>
</g>
<text transform="matrix(1 0 0 1 0 115)" style="display:none;enable-background:new    ; font-family:'HelveticaNeue-Bold'; font-size:5px;">Created by mikicon</text>
<text transform="matrix(1 0 0 1 0 120)" style="display:none;enable-background:new    ; font-family:'HelveticaNeue-Bold'; font-size:5px;">from the Noun Project</text>
</svg>
