<?xml version="1.0" encoding="utf-8"?>
<!-- Generator: Adobe Illustrator 22.0.1, SVG Export Plug-In . SVG Version: 6.00 Build 0)  -->
<svg version="1.1" id="Layer_1" xmlns="http://www.w3.org/2000/svg" xmlns:xlink="http://www.w3.org/1999/xlink" x="0px" y="0px"
	 viewBox="0 0 100 100" style="enable-background:new 0 0 100 100;" xml:space="preserve">
<g>
	<path style="fill:#FFFFFF;" d="M65,17c4.9,0,11.4,0,11.4,0V0c0,0-6.8,0-16.1,0S39,6,39,23.2c0,3.2,0,8,0,13.5H23.6v17.6H39
		c0,21.9,0,45.7,0,45.7h6.8h5.4h6.1c0,0,0-24.7,0-45.7h15.3l2.5-17.6H57.3c0-5.8,0-10,0-11.2C57.3,19.8,60.1,17,65,17z"/>
</g>
</svg>
