<?xml version="1.0" encoding="utf-8"?>
<!-- Generator: Adobe Illustrator 22.0.1, SVG Export Plug-In . SVG Version: 6.00 Build 0)  -->
<svg version="1.1" id="Layer_1" xmlns="http://www.w3.org/2000/svg" xmlns:xlink="http://www.w3.org/1999/xlink" x="0px" y="0px"
	 viewBox="0 0 512 512" style="enable-background:new 0 0 512 512;" xml:space="preserve">
<path style="fill:#FFFFFF;" d="M270.7,290.4c-10.9-8.4-22.6-16.1-34.1-25.7c-16.1-13.5-10.2-32.8,6.4-45.8
	c14.8-11.7,32.3-25.2,41.2-38.1c26.4-39.9,14.2-96.7-27-126.4h37.4l40.7-25.7H207c-92.8,0-163,35.4-157.4,121.8
	c3.8,59.3,58,91.5,125.1,84.4c-14.2,22.6-4.5,45.2,12.2,63.1C14.2,301.9-5.8,398.6,34.9,443.8c26.4,29,73.5,40.7,121.8,39.4
	c57.4-0.7,117.3-20.6,144.4-59.3C324.1,390.2,339.6,342.6,270.7,290.4L270.7,290.4z M495,233h-71.5v-68.4h-23.9V233h-74.1v23.2h74.1
	v67.7h23.9v-67.7H495V233z M232.6,113.7c16.1,41.2,12.9,89.6-31,103.2c-49.6,15.5-87-32.8-94.8-80.6c-5.8-34.8,2.6-68.9,36.1-80.6
	C183,42.2,216.5,74.4,232.6,113.7L232.6,113.7z M74.7,374.9c9.1-47.1,66.4-59.3,133.5-59.3c26.4,18.8,53.4,36.8,64.5,56.7
	c7.7,15.5,5.8,37.4-7.8,54.9c-16.8,20.6-45.1,28.4-72.2,30.3c-50.3,2.6-92.3-17.3-110.2-39.9C72.7,404.4,71.4,389.6,74.7,374.9
	L74.7,374.9z"/>
</svg>
