<?xml version="1.0" encoding="utf-8"?>
<!-- Generator: Adobe Illustrator 22.0.1, SVG Export Plug-In . SVG Version: 6.00 Build 0)  -->
<svg version="1.1" id="Layer_1" xmlns="http://www.w3.org/2000/svg" xmlns:xlink="http://www.w3.org/1999/xlink" x="0px" y="0px"
	 viewBox="0 0 512 512" style="enable-background:new 0 0 512 512;" xml:space="preserve">
<style type="text/css">
	.st0{fill:#FFFFFF;}
</style>
<g>
	<path class="st0" d="M256.2,512C396.8,512,512,396.8,512,256.2C512,115.2,396.8,0,256.2,0C115.2,0,0,115.2,0,256.2
		C0,396.8,115.2,512,256.2,512L256.2,512z"/>
	<path class="st0" d="M274.4,280.3c-7.7-5.9-15.9-11.3-24-18.1c-11.3-9.5-7.2-23.1,4.5-32.2c10.4-8.2,22.7-17.7,29-26.8
		c18.6-28.1,10-68-19-88.9h26.3l28.6-18.1h-90.2c-65.3,0-114.7,24.9-110.7,85.7c2.7,41.7,40.8,64.4,88,59.4
		c-10,15.9-3.2,31.8,8.6,44.4c-121.5,2.7-135.6,70.7-107,102.5c18.6,20.4,51.7,28.6,85.7,27.7c40.4-0.5,82.5-14.5,101.6-41.7
		C312,350.5,322.9,317,274.4,280.3L274.4,280.3z M432.2,239.9h-50.3v-48.1h-16.8v48.1h-52.1v16.3h52.1v47.6h16.8v-47.6h50.3V239.9z
		 M247.6,156c11.3,29,9.1,63-21.8,72.6c-34.9,10.9-61.2-23.1-66.7-56.7c-4.1-24.5,1.8-48.5,25.4-56.7
		C212.7,105.7,236.3,128.3,247.6,156L247.6,156z M136.5,339.7c6.4-33.1,46.7-41.7,93.9-41.7c18.6,13.2,37.6,25.9,45.4,39.9
		c5.4,10.9,4.1,26.3-5.5,38.6c-11.8,14.5-31.7,20-50.8,21.3c-35.4,1.8-64.9-12.2-77.5-28.1C135.1,360.5,134.2,350.1,136.5,339.7
		L136.5,339.7z"/>
</g>
</svg>
