<?xml version="1.0" encoding="utf-8"?>
<!-- Generator: Adobe Illustrator 22.0.1, SVG Export Plug-In . SVG Version: 6.00 Build 0)  -->
<svg version="1.1" id="Layer_1" xmlns="http://www.w3.org/2000/svg" xmlns:xlink="http://www.w3.org/1999/xlink" x="0px" y="0px"
	 viewBox="0 0 100 100" style="enable-background:new 0 0 100 100;" xml:space="preserve">
<path d="M50,3C24,3,3,24.1,3,50s21,47,47,47s47-21,47-47S76,3,50,3z M50,91.5C27.2,91.5,8.5,72.8,8.5,50S27.2,8.5,50,8.5
	S91.5,27.2,91.5,50S72.8,91.5,50,91.5z"/>
<circle cx="25.7" cy="50" r="8.3"/>
<circle cx="50" cy="50" r="8.3"/>
<circle cx="74.3" cy="50" r="8.3"/>
<text transform="matrix(1 0 0 1 0 115)" style="display:none;enable-background:new    ; font-family:'ArialMT'; font-size:5px;">Created by Alina Oleynik</text>
<text transform="matrix(1 0 0 1 0 120)" style="display:none;enable-background:new    ; font-family:'ArialMT'; font-size:5px;">from the Noun Project</text>
</svg>
