<?xml version="1.0" encoding="utf-8"?>
<!-- Generator: Adobe Illustrator 22.0.1, SVG Export Plug-In . SVG Version: 6.00 Build 0)  -->
<svg version="1.1" id="Layer_1" xmlns="http://www.w3.org/2000/svg" xmlns:xlink="http://www.w3.org/1999/xlink" x="0px" y="0px"
	 viewBox="0 0 100 100" style="enable-background:new 0 0 100 100;" xml:space="preserve">
<g>
	<path style="stroke:#000000;stroke-miterlimit:10;" d="M61.5,44.6V8.3h33.5V37c0,15.5-1.9,26.8-5.6,33.7C84.7,80,77,87,66.5,91.7
		l-7.6-12.2C65.3,76.8,70,72.9,73,67.6s4.7-12.9,5-23H61.5z M7.8,44.6V8.3h33.5V37c0,15.5-1.9,26.8-5.6,33.7
		c-4.8,9.3-12.5,16.3-23,21L4.9,79.5C11.4,76.9,16,72.9,19,67.6s4.7-12.9,5-23H7.8z"/>
</g>
</svg>
