<?xml version="1.0" encoding="utf-8"?>
<!-- Generator: Adobe Illustrator 22.0.1, SVG Export Plug-In . SVG Version: 6.00 Build 0)  -->
<svg version="1.1" id="Layer_1" xmlns="http://www.w3.org/2000/svg" xmlns:xlink="http://www.w3.org/1999/xlink" x="0px" y="0px"
	 viewBox="0 0 100 100" style="enable-background:new 0 0 100 100;" xml:space="preserve">
<title>se r1</title>
<path d="M38.7,74.7C18.9,74.6,2.9,58.5,3,38.7C3.1,18.9,19.2,2.9,39.1,3c19.7,0.1,35.7,16.1,35.7,35.9
	C74.7,58.7,58.6,74.7,38.7,74.7z M38.7,65.1c14.5-0.1,26.2-11.9,26-26.4c-0.1-14.5-11.9-26.2-26.4-26c-14.4,0.1-26,11.8-26.1,26.2
	C12.3,53.4,24.1,65.2,38.7,65.1L38.7,65.1z"/>
<rect x="72.4" y="54.1" transform="matrix(0.7086 -0.7056 0.7056 0.7086 -32.1656 77.0153)" width="9.6" height="46.6"/>
<text transform="matrix(1 0 0 1 0 115)" style="display:none;enable-background:new    ; font-family:'ArialMT'; font-size:5px;">Created by i cons</text>
<text transform="matrix(1 0 0 1 0 120)" style="display:none;enable-background:new    ; font-family:'ArialMT'; font-size:5px;">from the Noun Project</text>
</svg>
