<?xml version="1.0" encoding="utf-8"?>
<!-- Generator: Adobe Illustrator 22.0.1, SVG Export Plug-In . SVG Version: 6.00 Build 0)  -->
<svg version="1.1"
	 id="Layer_1" xmlns:cc="http://creativecommons.org/ns#" xmlns:dc="http://purl.org/dc/elements/1.1/" xmlns:inkscape="http://www.inkscape.org/namespaces/inkscape" xmlns:rdf="http://www.w3.org/1999/02/22-rdf-syntax-ns#" xmlns:sodipodi="http://sodipodi.sourceforge.net/DTD/sodipodi-0.dtd" xmlns:svg="http://www.w3.org/2000/svg"
	 xmlns="http://www.w3.org/2000/svg" xmlns:xlink="http://www.w3.org/1999/xlink" x="0px" y="0px" viewBox="0 0 100 100"
	 style="enable-background:new 0 0 100 100;" xml:space="preserve">
<g transform="translate(0,-952.36218)">
	<path style="fill:#FFFFFF;" d="M85.2,967c-1.5-1.5-3.8-1.4-5.2,0l0,0l-30,30l-30-30c-0.1-0.1-0.1-0.1-0.3-0.3
		c-1.6-1.4-3.9-1.2-5.3,0.4c-1.4,1.6-1.2,3.9,0.4,5.3l0,0l30,30l-30,30c-1.5,1.5-1.5,3.7,0,5.2c1.5,1.5,3.7,1.5,5.2,0l0.1-0.1l30-30
		l30,30c1.5,1.5,3.7,1.5,5.2,0c1.5-1.5,1.5-3.7,0-5.2l-0.1-0.1l-30-30l30.1-30.1C86.6,970.9,86.7,968.5,85.2,967L85.2,967z"/>
</g>
</svg>
