<?xml version="1.0" encoding="utf-8"?>
<!-- Generator: Adobe Illustrator 22.0.1, SVG Export Plug-In . SVG Version: 6.00 Build 0)  -->
<svg version="1.1" id="Layer_1" xmlns="http://www.w3.org/2000/svg" xmlns:xlink="http://www.w3.org/1999/xlink" x="0px" y="0px"
	 viewBox="0 0 100 100" style="enable-background:new 0 0 100 100;" xml:space="preserve">
<path style="fill:#FFFFFF;" d="M20,1h5.7l4.1,15.1L33.5,1h6.1l-6.9,22.4v15.5H27V23.4L20,1z M46.5,10.8c-4.5,0-7.7,2.9-7.7,7.3v13.4
	c0,4.9,2.4,7.3,7.7,7.3c4.1,0,7.3-2.9,7.3-7.3V18.1C54.3,13.6,51,10.8,46.5,10.8z M49,31.6c0,1.6-0.8,2.4-2,2.4
	c-1.6,0-2.4-1.2-2.4-2.4v-13c0-1.6,0.8-2.9,2-2.9c1.6,0,2.4,1.2,2.4,2.9V31.6z M68.1,10.8V32c-0.8,0.8-2,2-2.9,2
	c-1.2,0-1.2-0.8-1.2-2V10.8h-5.3V34c0,2.9,0.8,4.9,3.7,4.9c1.6,0,3.7-0.8,6.1-3.7v3.3h5.3V10.8H68.1z M77.1,67.4c-1.6,0-2,1.2-2,3.3
	v2.9h4.5v-2.9C79.1,68.6,78.7,67.4,77.1,67.4z M57.9,67.4c-0.4,0-0.8,0.4-1.2,0.8v16.7c0.4,0.4,0.8,0.8,1.2,0.8
	c0.8,0.4,2,0.4,2.4-0.4c0.4-0.4,0.4-0.8,0.4-1.6V69.9c0-0.8,0-1.6-0.4-2C60,67,58.8,67,57.9,67.4z M77.5,46.2
	c-10.6-0.4-44.8-0.4-55.4,0C10.7,47,9,54,9,72.3s1.2,25.3,13,26.1c10.6,0.8,45.2,0.8,55.8,0c11.4-0.8,12.6-7.7,13-26.1
	C90.5,54,88.9,47,77.5,46.2z M27.4,89.8h-5.7V59.3H16V54h17.1v5.3h-5.7V89.8L27.4,89.8z M47.4,89.8h-4.9V87c-0.8,1.2-2,2-2.9,2.4
	c-2.9,1.6-6.1,1.6-6.1-4.1v-22h4.9v20.4c0,1.2,0.4,1.6,1.2,1.6s2.4-1.2,2.9-2v-20h4.9V89.8L47.4,89.8z M66.1,84.5
	c0,3.3-1.2,5.7-4.5,5.7c-1.6,0-3.3-0.8-4.5-2.4v2h-4.9V54h4.9v11.4c1.2-1.2,2.4-2.4,4.5-2.4c3.7,0,4.9,2.9,4.9,6.5L66.1,84.5
	L66.1,84.5z M84.4,77.2h-9.4v4.9c0,2,0,3.7,2,3.7s2-1.2,2-3.7v-2H84v2.4c0,5.3-2,8.1-7.3,8.1c-4.9,0-6.9-3.3-6.9-8.1V70.7
	c0-4.5,2.9-7.7,7.3-7.7c4.9,0,6.9,2.9,6.9,7.7L84.4,77.2L84.4,77.2z"/>
</svg>
