<svg xmlns="http://www.w3.org/2000/svg" xmlns:xlink="http://www.w3.org/1999/xlink" version="1.1" x="0px" y="0px" viewBox="0 0 100 125" style="enable-background:new 0 0 100 100;" xml:space="preserve"><g><path d="M3.3,51.9c0.1,3.5,2.7,6.7,7.2,9.3c1.7,7.5,5.5,14.3,10.7,19.7c0.4,2.9,1.1,5.5,2.2,7.7c1.8,3.6,4.6,5.9,8,6.6   c0.9,0.2,1.8,0.3,2.8,0.3c2.8,0,5.9-0.9,9.3-2.6l0,0c2.4,0.4,4.9,0.7,7.5,0.7c5.5,0,10.7-1.1,15.4-3l-0.2,0.7   c2.7,0.9,5.3,1.6,7.5,1.6c1.7,0,3.2-0.4,4.4-1.5c2.6-2.2,3.4-5.9,2.8-10.7c5.8-6.1,9.8-14,11.1-22.7c3.7-2.7,5.8-5.8,5.7-9.1   c-0.1-3.4-3.5-6.1-6.5-8.2L91,41.1c-2.2-8.1-6.9-15.3-13.1-20.6l0,0c-1.2-3.7-4.1-10-9.1-11.2c-3.3-0.7-7,0-10.9,1.8   c-2.3-0.4-4.6-0.6-7-0.6c-8.9,0-17.1,2.8-23.9,7.6c-4.4-1.1-7.9-0.7-10.2,1.3c-2.3,2-2.3,6.6-2,11.4l0.5,0   c-2.2,3.7-3.8,7.7-4.8,11.9l-0.4-0.6C5.5,45,3.2,48.5,3.3,51.9z M95.7,48.9c0.1,2.2-1.2,4.3-3.4,6.3c0.1-1,0.1-2.1,0.1-3.1   c0-3-0.3-5.9-0.9-8.7C93.6,44.8,95.7,46.8,95.7,48.9z M20.9,73.5l-3.3-0.3c-2.1-3.3-3.8-6.9-4.8-10.8c2.6,1.2,5.7,2.3,9.1,3.2   C21.4,68.4,21.1,71,20.9,73.5z M31.8,93.2c-2.9-0.6-5.2-2.5-6.7-5.6c-0.7-1.3-1.2-2.8-1.5-4.4c4.7,4.2,10.4,7.3,16.7,8.9   C37.2,93.4,34.3,93.8,31.8,93.2z M50.9,91.5c-10.9,0-20.7-4.4-27.9-11.5c0-0.2,0-0.5-0.1-0.7l5.3-5L23,73.7c0.1-2.4,0.5-5,1-7.6   c5.7,1.3,12.3,2.1,19.5,2.3l0.6,8.4l8.5-8.5c7.7-0.3,14.9-1.3,21.2-2.8c2.8,5.4,4.6,10.3,5.2,14.4C71.7,87.1,61.8,91.5,50.9,91.5z    M33.1,40.9c2.6-4.8,5.4-9.2,8.4-13c5.7,4.2,11.5,9.6,17,15.8l-6.2,6l11.8,0.9c3.3,4.4,6.2,8.8,8.4,13c-6.2,1.5-13.3,2.4-20.8,2.7   l-9-6.8l0.5,6.9c-6.9-0.2-13.4-1-18.9-2.3c1.1-4.9,2.7-10,4.9-15.2l7.5,3.2L33.1,40.9z M76.8,89.8c-1.7,1.5-4.6,1.1-8.6-0.1   c4-1.9,7.7-4.3,10.9-7.3C79.3,85.7,78.6,88.3,76.8,89.8z M80.5,78.1c-0.8-3.9-2.5-8.4-4.9-13.1c1.8-0.5,3.5-1,5.1-1.5l2.7,4.9   l2.6-6.9c1.4-0.6,2.6-1.3,3.8-2C88.4,66.5,85.1,72.9,80.5,78.1z M68.4,11.3c3,0.7,5.1,4,6.4,6.9c-4-2.9-8.6-5-13.5-6.3   C63.8,11,66.2,10.8,68.4,11.3z M58.1,13.2C76.5,16.5,90.4,32.7,90.4,52c0,1.6-0.1,3.2-0.3,4.8c-1.6,1-3.4,2-5.5,3l-6.7-1.5l1.8,3.4   c-1.6,0.5-3.3,1-5.1,1.5c-2.5-4.6-5.6-9.4-9.3-14.2l-0.6-11.3L60,42.3c-5.5-6.3-11.4-11.8-17.2-16c2.5-3.1,5.2-5.8,7.8-8.1l4.2,4.2   l0.5-7.7C56.2,14.1,57.2,13.6,58.1,13.2z M50.9,12.5c1.4,0,2.7,0.1,4.1,0.2c-0.6,0.4-1.2,0.8-1.8,1.2l-6.5,0.4l2.6,2.6   c-2.7,2.3-5.4,5.1-8,8.3c-1.8-1.3-3.6-2.4-5.3-3.4c-2.3-1.3-4.4-2.3-6.4-3C35.7,14.8,43,12.5,50.9,12.5z M18.1,21   c1.6-1.3,3.9-1.7,6.8-1.3c-3.1,2.5-5.9,5.5-8.2,8.9C16.6,25.8,16.7,22.2,18.1,21z M27.4,20.3c2.3,0.7,4.8,1.8,7.5,3.3   c1.7,0.9,3.3,2,5,3.2c-3.2,4-6.1,8.6-8.8,13.5l-10.4,5l6.6,2.9c-2.3,5.3-4,10.6-5.1,15.5c-4-1-7.4-2.3-10.1-3.7   c-0.5-2.5-0.8-5.2-0.8-7.9C11.4,39,17.7,27.5,27.4,20.3z M10,58.5c-2.9-2-4.6-4.2-4.7-6.7c-0.1-3,2.4-5.6,4.9-7.4   c-0.5,2.5-0.7,5-0.7,7.5C9.4,54.2,9.6,56.4,10,58.5z"/></g><text x="0" y="115" fill="#000000" font-size="5px" font-weight="bold" font-family="'Helvetica Neue', Helvetica, Arial-Unicode, Arial, Sans-serif">Created by Trident</text><text x="0" y="120" fill="#000000" font-size="5px" font-weight="bold" font-family="'Helvetica Neue', Helvetica, Arial-Unicode, Arial, Sans-serif">from the Noun Project</text></svg>