<?xml version="1.0" encoding="utf-8"?>
<!-- Generator: Adobe Illustrator 22.0.1, SVG Export Plug-In . SVG Version: 6.00 Build 0)  -->
<svg version="1.1" id="Layer_1" xmlns="http://www.w3.org/2000/svg" xmlns:xlink="http://www.w3.org/1999/xlink" x="0px" y="0px"
	 viewBox="0 0 100 101" style="enable-background:new 0 0 100 101;" xml:space="preserve">
<g>
	<path d="M93,50c0,23.7-19.3,43-43,43S7,73.7,7,50S26.3,7,50,7S93,26.3,93,50 M95,50C95,25.1,74.9,5,50,5S5,25.1,5,50s20.1,45,45,45
		S95,74.9,95,50L95,50z"/>
</g>
<path d="M67.4,51.4L55.9,62.9c-0.5,0.5-0.5,1.4,0,2l0,0c0.5,0.5,1.4,0.5,2,0L71.8,51c0.5-0.5,0.5-1.4,0-2L57.9,35.1
	c-0.5-0.5-1.4-0.5-2,0l0,0c-0.5,0.5-0.5,1.4,0,2l11.5,11.5H29.2c-0.8,0-1.4,0.6-1.4,1.4l0,0c0,0.8,0.6,1.4,1.4,1.4H67.4z"/>
</svg>
