<?xml version="1.0" encoding="utf-8"?>
<!-- Generator: Adobe Illustrator 21.1.0, SVG Export Plug-In . SVG Version: 6.00 Build 0)  -->
<svg version="1.1" id="Layer_1" xmlns="http://www.w3.org/2000/svg" xmlns:xlink="http://www.w3.org/1999/xlink" x="0px" y="0px"
	 viewBox="0 0 100 100" style="enable-background:new 0 0 100 100;" xml:space="preserve">
<style type="text/css">
	.st0{display:none;enable-background:new    ;}
	.st1{display:inline;}
</style>
<g>
	<path d="M97.5,12.8c-0.5-1.1-3.7-6.6-15.4-6.6H17.9C6.2,6.2,3,11.7,2.5,12.8c-4.4,6.5-2.9,15.4,3.6,19.9c2.6,1.8,5.7,2.5,8.8,2
		c3.1-0.5,5.8-2.3,7.6-4.8c1.5-2.1,2.1-4.7,1.6-7.2c-0.4-2.5-1.9-4.8-4-6.3c-1.8-1.2-3.9-1.7-6-1.3c-2.1,0.4-3.9,1.5-5.2,3.3
		c-2.1,3-1.4,7.2,1.6,9.3c1.2,0.9,2.7,1.2,4.2,0.9c1.5-0.3,2.8-1.1,3.6-2.3c0.4-0.6,0.3-1.5-0.3-1.9c-0.6-0.4-1.5-0.3-1.9,0.3
		c-0.4,0.6-1.1,1.1-1.9,1.2c-0.8,0.1-1.5,0-2.2-0.5c-1.8-1.3-2.2-3.7-1-5.5c0.8-1.2,2-1.9,3.4-2.2c1.4-0.2,2.8,0.1,3.9,0.9
		c1.5,1.1,2.5,2.7,2.9,4.5c0.3,1.8-0.1,3.7-1.2,5.2c-1.4,2-3.5,3.3-5.8,3.7c-2.4,0.4-4.8-0.1-6.7-1.5c-5.2-3.7-6.5-10.9-2.8-16.2
		C4.9,14.2,5,14.1,5,14c0.1-0.2,2.2-5,12.9-5h64.1c10.8,0,12.9,4.8,12.9,5c0,0.1,0.1,0.2,0.2,0.3c3.7,5.2,2.4,12.5-2.8,16.2
		c-2,1.4-4.4,1.9-6.7,1.5c-2.4-0.4-4.4-1.7-5.8-3.7c-1.1-1.5-1.5-3.4-1.2-5.2c0.3-1.8,1.3-3.4,2.9-4.5c1.2-0.8,2.6-1.1,3.9-0.9
		c1.4,0.2,2.6,1,3.4,2.2c0.6,0.9,0.8,1.9,0.7,3c-0.2,1-0.8,1.9-1.6,2.6c-0.6,0.4-1.4,0.6-2.2,0.5c-0.8-0.1-1.4-0.6-1.9-1.2
		c-0.4-0.6-1.3-0.8-1.9-0.3c-0.6,0.4-0.8,1.3-0.3,1.9c0.9,1.2,2.2,2,3.6,2.3c1.5,0.3,3-0.1,4.2-0.9c1.5-1,2.4-2.6,2.7-4.3
		c0.3-1.8-0.1-3.5-1.1-5c-1.2-1.8-3.1-2.9-5.2-3.3c-2.1-0.4-4.2,0.1-6,1.3c-2.1,1.5-3.5,3.7-4,6.3c-0.4,2.5,0.1,5.1,1.6,7.2
		c1.8,2.6,4.5,4.3,7.6,4.8c0.7,0.1,1.4,0.2,2.1,0.2c2.4,0,4.7-0.7,6.7-2.1C100.3,28.2,101.9,19.3,97.5,12.8z"/>
	<path d="M31.8,37.8c2.3,0,4.2-1.9,4.2-4.2s-1.9-4.2-4.2-4.2s-4.2,1.9-4.2,4.2S29.5,37.8,31.8,37.8z M31.8,32.2
		c0.8,0,1.5,0.7,1.5,1.5s-0.7,1.5-1.5,1.5c-0.8,0-1.5-0.7-1.5-1.5S31,32.2,31.8,32.2z"/>
	<path d="M48.1,33.6c0-2.3-1.9-4.2-4.2-4.2c-2.3,0-4.2,1.9-4.2,4.2s1.9,4.2,4.2,4.2C46.3,37.8,48.1,36,48.1,33.6z M42.5,33.6
		c0-0.8,0.7-1.5,1.5-1.5c0.8,0,1.5,0.7,1.5,1.5s-0.7,1.5-1.5,1.5C43.1,35.1,42.5,34.5,42.5,33.6z"/>
	<path d="M60.3,33.6c0-2.3-1.9-4.2-4.2-4.2c-2.3,0-4.2,1.9-4.2,4.2s1.9,4.2,4.2,4.2C58.4,37.8,60.3,36,60.3,33.6z M54.6,33.6
		c0-0.8,0.7-1.5,1.5-1.5c0.8,0,1.5,0.7,1.5,1.5s-0.7,1.5-1.5,1.5C55.3,35.1,54.6,34.5,54.6,33.6z"/>
	<path d="M72.4,33.6c0-2.3-1.9-4.2-4.2-4.2c-2.3,0-4.2,1.9-4.2,4.2s1.9,4.2,4.2,4.2C70.5,37.8,72.4,36,72.4,33.6z M66.7,33.6
		c0-0.8,0.7-1.5,1.5-1.5c0.8,0,1.5,0.7,1.5,1.5s-0.7,1.5-1.5,1.5C67.4,35.1,66.7,34.5,66.7,33.6z"/>
	<path d="M71.4,41H28.6c-0.8,0-1.4,0.6-1.4,1.4s0.6,1.4,1.4,1.4h42.9c0.8,0,1.4-0.6,1.4-1.4S72.2,41,71.4,41z"/>
	<path d="M71.4,23.6H28.6c-0.8,0-1.4,0.6-1.4,1.4s0.6,1.4,1.4,1.4h42.9c0.8,0,1.4-0.6,1.4-1.4S72.2,23.6,71.4,23.6z"/>
	<path d="M31.8,46.8c-2.3,0-4.2,1.9-4.2,4.2v41.4c0,0.8,0.6,1.4,1.4,1.4c0.8,0,1.4-0.6,1.4-1.4V51c0-0.8,0.7-1.5,1.5-1.5
		c0.8,0,1.5,0.7,1.5,1.5v41.4c0,0.8,0.6,1.4,1.4,1.4s1.4-0.6,1.4-1.4V51C36,48.7,34.1,46.8,31.8,46.8z"/>
	<path d="M43.9,46.8c-2.3,0-4.2,1.9-4.2,4.2v41.4c0,0.8,0.6,1.4,1.4,1.4s1.4-0.6,1.4-1.4V51c0-0.8,0.7-1.5,1.5-1.5
		c0.8,0,1.5,0.7,1.5,1.5v41.4c0,0.8,0.6,1.4,1.4,1.4s1.4-0.6,1.4-1.4V51C48.1,48.7,46.3,46.8,43.9,46.8z"/>
	<path d="M56.1,46.8c-2.3,0-4.2,1.9-4.2,4.2v41.4c0,0.8,0.6,1.4,1.4,1.4s1.4-0.6,1.4-1.4V51c0-0.8,0.7-1.5,1.5-1.5
		c0.8,0,1.5,0.7,1.5,1.5v41.4c0,0.8,0.6,1.4,1.4,1.4s1.4-0.6,1.4-1.4V51C60.3,48.7,58.4,46.8,56.1,46.8z"/>
	<path d="M68.2,46.8c-2.3,0-4.2,1.9-4.2,4.2v41.4c0,0.8,0.6,1.4,1.4,1.4s1.4-0.6,1.4-1.4V51c0-0.8,0.7-1.5,1.5-1.5
		c0.8,0,1.5,0.7,1.5,1.5v41.4c0,0.8,0.6,1.4,1.4,1.4s1.4-0.6,1.4-1.4V51C72.4,48.7,70.5,46.8,68.2,46.8z"/>
	<path d="M69.3,12.1H30.7c-2.3,0-4.2,1.9-4.2,4.2s1.9,4.2,4.2,4.2h38.6c2.3,0,4.2-1.9,4.2-4.2C73.5,14,71.6,12.1,69.3,12.1z
		 M69.3,17.7h-9.6h-29c-0.8,0-1.5-0.7-1.5-1.5s0.7-1.5,1.5-1.5h38.6c0.8,0,1.5,0.7,1.5,1.5C70.8,17.1,70.1,17.7,69.3,17.7z"/>
</g>
<text transform="matrix(1 0 0 1 0 115)" class="st0" style="font-family:'HelveticaNeue-Bold'; font-size:5px;">Created by Giuditta Valentina Gentile</text>
<text transform="matrix(1 0 0 1 0 120)" class="st0" style="font-family:'HelveticaNeue-Bold'; font-size:5px;">from the Noun Project</text>
</svg>
