<?xml version="1.0" encoding="utf-8"?>
<!-- Generator: Adobe Illustrator 22.0.1, SVG Export Plug-In . SVG Version: 6.00 Build 0)  -->
<svg version="1.1" id="Layer_1" xmlns="http://www.w3.org/2000/svg" xmlns:xlink="http://www.w3.org/1999/xlink" x="0px" y="0px"
	 viewBox="0 0 512 512" style="enable-background:new 0 0 512 512;" xml:space="preserve">
<g>
	<path style="fill:#FFFFFF;" d="M301.6,151.2c15.6,0,36.3,0,36.3,0V97c0,0-21.8,0-51.4,0s-68.1,19-68.1,74.2c0,10.3,0,25.4,0,43
		h-49.1v56.1h49.1c0,69.9,0,146,0,146h21.8h17.3H277c0,0,0-78.8,0-146h48.8l8.1-56.1H277c0-18.4,0-31.8,0-35.7
		C277,160.1,286,151.2,301.6,151.2z"/>
</g>
</svg>
