<?xml version="1.0" encoding="utf-8"?>
<!-- Generator: Adobe Illustrator 22.0.1, SVG Export Plug-In . SVG Version: 6.00 Build 0)  -->
<svg version="1.1" id="Layer_1" xmlns="http://www.w3.org/2000/svg" xmlns:xlink="http://www.w3.org/1999/xlink" x="0px" y="0px"
	 viewBox="0 0 100 100" style="enable-background:new 0 0 100 100;" xml:space="preserve">
<g>
	<path style="fill:#FFFFFF;" d="M64.7,17.7c4.8,0,11.2,0,11.2,0V1c0,0-6.7,0-15.8,0S39.2,6.9,39.2,23.7c0,3.1,0,7.8,0,13.2H24.1
		v17.2h15.1c0,21.5,0,44.8,0,44.8h6.7h5.3h6c0,0,0-24.2,0-44.8h15L74.6,37H57.2c0-5.7,0-9.8,0-11C57.2,20.4,59.9,17.7,64.7,17.7z"/>
</g>
</svg>
