<?xml version="1.0" encoding="utf-8"?>
<!-- Generator: Adobe Illustrator 22.0.0, SVG Export Plug-In . SVG Version: 6.00 Build 0)  -->
<svg version="1.1"
	 id="Layer_1" xmlns:cc="http://creativecommons.org/ns#" xmlns:dc="http://purl.org/dc/elements/1.1/" xmlns:inkscape="http://www.inkscape.org/namespaces/inkscape" xmlns:rdf="http://www.w3.org/1999/02/22-rdf-syntax-ns#" xmlns:sodipodi="http://sodipodi.sourceforge.net/DTD/sodipodi-0.dtd" xmlns:svg="http://www.w3.org/2000/svg"
	 xmlns="http://www.w3.org/2000/svg" xmlns:xlink="http://www.w3.org/1999/xlink" x="0px" y="0px" viewBox="0 0 100 100"
	 style="enable-background:new 0 0 100 100;" xml:space="preserve">
<g transform="translate(0,-952.36218)">
	<path style="fill:#A5A5A5;" d="M24.3,952.4C10.9,952.4,0,963.3,0,976.6v51.4c0,13.4,10.9,24.3,24.3,24.3h51.4
		c13.4,0,24.3-10.9,24.3-24.3v-51.4c0-13.4-10.9-24.3-24.3-24.3H24.3z M24.3,960.9h51.4c8.8,0,15.7,6.9,15.7,15.7v51.4
		c0,8.8-6.9,15.7-15.7,15.7H24.3c-8.8,0-15.7-6.9-15.7-15.7v-51.4C8.6,967.9,15.5,960.9,24.3,960.9z M78.6,969.5
		c-3.2,0-5.7,2.6-5.7,5.7c0,3.2,2.6,5.7,5.7,5.7c3.2,0,5.7-2.6,5.7-5.7C84.3,972.1,81.7,969.5,78.6,969.5z M50,978.1
		c-13.4,0-24.3,10.9-24.3,24.3s10.9,24.3,24.3,24.3s24.3-10.9,24.3-24.3C74.3,989,63.4,978.1,50,978.1z M50,986.6
		c8.7,0,15.7,7,15.7,15.7s-7,15.7-15.7,15.7s-15.7-7-15.7-15.7C34.3,993.6,41.3,986.6,50,986.6z"/>
</g>
<text transform="matrix(1 0 0 1 0 115)" style="display:none;enable-background:new    ; font-family:'HelveticaNeue-Bold'; font-size:5px;">Created by Three Six Five</text>
<text transform="matrix(1 0 0 1 0 120)" style="display:none;enable-background:new    ; font-family:'HelveticaNeue-Bold'; font-size:5px;">from the Noun Project</text>
</svg>
