<?xml version="1.0" encoding="utf-8"?>
<!-- Generator: Adobe Illustrator 22.0.0, SVG Export Plug-In . SVG Version: 6.00 Build 0)  -->
<svg version="1.1" id="Layer_1" xmlns="http://www.w3.org/2000/svg" xmlns:xlink="http://www.w3.org/1999/xlink" x="0px" y="0px"
	 viewBox="0 0 100 100" style="enable-background:new 0 0 100 100;" xml:space="preserve">
<path style="fill:#FFFFFF;" d="M50,0C22.3,0,0,22.5,0,50s22.3,50,50,50s50-22.3,50-50S77.7,0,50,0z M50,94.1
	C25.7,94.1,5.9,74.3,5.9,50S25.7,5.9,50,5.9S94.1,25.7,94.1,50S74.3,94.1,50,94.1z"/>
<circle style="fill:#FFFFFF;" cx="25.7" cy="50" r="8.3"/>
<circle style="fill:#FFFFFF;" cx="50" cy="50" r="8.3"/>
<circle style="fill:#FFFFFF;" cx="74.3" cy="50" r="8.3"/>
<text transform="matrix(1 0 0 1 0 115)" style="display:none;enable-background:new    ; font-family:'HelveticaNeue-Bold'; font-size:5px;">Created by Alina Oleynik</text>
<text transform="matrix(1 0 0 1 0 120)" style="display:none;enable-background:new    ; font-family:'HelveticaNeue-Bold'; font-size:5px;">from the Noun Project</text>
</svg>
