<?xml version="1.0" encoding="utf-8"?>
<!-- Generator: Adobe Illustrator 22.0.1, SVG Export Plug-In . SVG Version: 6.00 Build 0)  -->
<svg version="1.1" id="Layer_1" xmlns="http://www.w3.org/2000/svg" xmlns:xlink="http://www.w3.org/1999/xlink" x="0px" y="0px"
	 viewBox="0 0 100 100" style="enable-background:new 0 0 100 100;" xml:space="preserve">
<title>Essential Icons</title>
<path d="M95.5,16.7H4.5c-2.5,0-4.5-2-4.5-4.5s2-4.5,4.5-4.5h90.9c2.5,0,4.5,2,4.5,4.5S98,16.7,95.5,16.7z"/>
<path d="M95.5,54.5H4.5C2,54.5,0,52.5,0,50s2-4.5,4.5-4.5h90.9c2.5,0,4.5,2,4.5,4.5S98,54.5,95.5,54.5z"/>
<path d="M95.5,92.4H4.5c-2.5,0-4.5-2-4.5-4.5c0-2.5,2-4.5,4.5-4.5h90.9c2.5,0,4.5,2,4.5,4.5C100,90.4,98,92.4,95.5,92.4z"/>
</svg>
