<?xml version="1.0" encoding="utf-8"?>
<!-- Generator: Adobe Illustrator 21.1.0, SVG Export Plug-In . SVG Version: 6.00 Build 0)  -->
<svg version="1.1" id="Layer_1" xmlns="http://www.w3.org/2000/svg" xmlns:xlink="http://www.w3.org/1999/xlink" x="0px" y="0px"
	 viewBox="0 0 100 101" style="enable-background:new 0 0 100 101;" xml:space="preserve">
<style type="text/css">
	.st0{fill:#FFFFFF;}
	.st1{display:none;enable-background:new    ;}
	.st2{display:inline;}
</style>
<path class="st0" d="M50,42.3c0-2.5-5.6-8.2-7.8-7.8C44.4,34.1,50,26.6,50,24c0,2.5,5.6,10.1,7.8,10.4C55.6,34.1,50,39.8,50,42.3z
	 M50,45.9c0-0.3-0.5-1.1-0.5-1.1s-6-12.8-24.9-2.2c-4.9,2.7-13.9,9-22.4,1.3c-0.3-0.3-0.6-1.1-1.7-0.4c-0.3,0.2-0.7,0.6,0,1.7
	c0,0,9.1,11.5,23.8,5c0,0,0.5-0.4,0.8,0.8c0.1,0.6,2.1,7.1,8.2,5.5c0,0,1.9-0.5,1-1.5c0,0-5.4-5.1-0.4-10.5C36.1,42,44.6,41,47.1,48
	c1.1,3-0.4,11.8-8.1,9.8c-0.7-0.2-2-1.7-2.8-1.2c0,0-1.1,0.6-0.3,2.2c1,2,2.8,5.3,7.8,4.4c0,0,1.6-0.1,2.6,0.8C48.2,66,50,76,50,76
	s1.8-10,3.6-11.8c1-1,2.6-0.8,2.6-0.8c5,0.9,6.7-2.4,7.8-4.4c0.9-1.6-0.3-2.2-0.3-2.2c-0.8-0.5-2,1-2.8,1.2
	c-7.7,1.9-9.1-6.8-8.1-9.8c2.5-7,11-6,13.4-3.4c4.9,5.3-0.4,10.5-0.4,10.5c-0.9,1,1,1.5,1,1.5c6.1,1.6,8.1-5,8.2-5.5
	c0.2-1.3,0.8-0.9,0.8-0.9c14.7,6.5,23.8-5,23.8-5c0.7-1.1,0.3-1.4,0-1.7c-1.1-0.7-1.3,0.2-1.7,0.4c-8.5,7.6-17.5,1.4-22.4-1.3
	c-19-10.6-24.9,2.2-24.9,2.2C50,45.8,50,46.2,50,45.9z"/>
<text transform="matrix(1 0 0 1 0 115)" class="st1" style="font-family:'HelveticaNeue-Bold'; font-size:5px;">Created by Bettina Tan</text>
<text transform="matrix(1 0 0 1 0 120)" class="st1" style="font-family:'HelveticaNeue-Bold'; font-size:5px;">from the Noun Project</text>
</svg>
