<?xml version="1.0" encoding="utf-8"?>
<!-- Generator: Adobe Illustrator 21.1.0, SVG Export Plug-In . SVG Version: 6.00 Build 0)  -->
<svg version="1.1" id="Layer_1" xmlns="http://www.w3.org/2000/svg" xmlns:xlink="http://www.w3.org/1999/xlink" x="0px" y="0px"
	 viewBox="0 0 100 100" style="enable-background:new 0 0 100 100;" xml:space="preserve">
<path style="fill:#323232;" d="M35.3,90c1.6,0,2.9-2,2.9-4.5l0,0V13.7c-0.3-2.4-1.8-4-3.4-3.6c-1.2,0.3-2.1,1.7-2.3,3.6v71.9
	C32.5,88,33.7,89.9,35.3,90z"/>
<path style="fill:#323232;" d="M64,90c1.6,0,2.9-1.9,2.9-4.4l0,0V15.2c0.3-2.4-0.7-4.6-2.3-5.1c-1.6-0.5-3.1,1.1-3.4,3.5
	c-0.1,0.6-0.1,1.1,0,1.6v70.5C61.2,88,62.4,89.9,64,90z"/>
</svg>
