<?xml version="1.0" encoding="utf-8"?>
<!-- Generator: Adobe Illustrator 22.0.1, SVG Export Plug-In . SVG Version: 6.00 Build 0)  -->
<svg version="1.1"
	 id="Layer_1" xmlns:cc="http://creativecommons.org/ns#" xmlns:dc="http://purl.org/dc/elements/1.1/" xmlns:inkscape="http://www.inkscape.org/namespaces/inkscape" xmlns:rdf="http://www.w3.org/1999/02/22-rdf-syntax-ns#" xmlns:sodipodi="http://sodipodi.sourceforge.net/DTD/sodipodi-0.dtd" xmlns:svg="http://www.w3.org/2000/svg"
	 xmlns="http://www.w3.org/2000/svg" xmlns:xlink="http://www.w3.org/1999/xlink" x="0px" y="0px" viewBox="0 0 100 100"
	 style="enable-background:new 0 0 100 100;" xml:space="preserve">
<g transform="translate(0,-952.36218)">
	<path style="fill:#FFFFFF;" d="M50,952.4c-2.1,0-3.7,1.7-3.7,3.7l0,0v42.4H3.9c-0.1,0-0.2,0-0.4,0c-2.1,0.1-3.6,1.9-3.5,4
		s1.9,3.6,4,3.5l0,0h42.4v42.4c0,2.1,1.6,3.7,3.7,3.7s3.7-1.6,3.7-3.7v-0.1v-42.4h42.4c2.1,0,3.7-1.6,3.7-3.7c0-2.1-1.6-3.7-3.7-3.7
		h-0.1H53.7V956C53.7,954.2,52.1,952.4,50,952.4L50,952.4z"/>
</g>
</svg>
