<?xml version="1.0" encoding="utf-8"?>
<!-- Generator: Adobe Illustrator 22.0.1, SVG Export Plug-In . SVG Version: 6.00 Build 0)  -->
<svg version="1.1" id="Layer_1" xmlns="http://www.w3.org/2000/svg" xmlns:xlink="http://www.w3.org/1999/xlink" x="0px" y="0px"
	 viewBox="0 0 100 100" style="enable-background:new 0 0 100 100;" xml:space="preserve">
<title>se r1</title>
<path d="M38,76.2C17,76.1,0.1,59,0.2,38S17.4,0.1,38.4,0.2c20.9,0.1,37.8,17.1,37.8,38C76.2,59.2,59.1,76.2,38,76.2z M38,66
	c15.4-0.1,27.8-12.6,27.6-28c-0.1-15.4-12.6-27.8-28-27.6C22.3,10.5,10,22.9,9.9,38.2C10,53.6,22.6,66.1,38,66L38,66z"/>
<rect x="73.7" y="54.4" transform="matrix(0.7086 -0.7056 0.7056 0.7086 -32.8617 78.6359)" width="10.2" height="49.4"/>
<text transform="matrix(1 0 0 1 0 115)" style="display:none;enable-background:new    ; font-family:'ArialMT'; font-size:5px;">Created by i cons</text>
<text transform="matrix(1 0 0 1 0 120)" style="display:none;enable-background:new    ; font-family:'ArialMT'; font-size:5px;">from the Noun Project</text>
</svg>
