<svg xmlns="http://www.w3.org/2000/svg" data-name="Layer 1" viewBox="0 0 512 640" x="0px" y="0px"><title>Comment</title><path d="M0,239.48v-17c1.2-7.51,2-15.11,3.67-22.53,8.23-37.71,28.64-68.14,57.25-93.25,45-39.47,98.54-59,157.19-66A326.54,326.54,0,0,1,324.4,45.57c47,9.94,89.91,28.73,126.31,60.71,28.74,25.3,49.29,55.76,57.63,93.64,1.56,7.11,2.45,14.37,3.66,21.55v18a29,29,0,0,0-1,4.33c-2.25,27-11.7,51.47-26.86,73.74-24.65,36.21-58.45,61.33-98.13,78.64-67,29.22-136.29,33.69-207.3,18a15.31,15.31,0,0,0-9.35,1.15c-37.34,18.37-74.55,37-111.8,55.52-1.57.78-3.2,1.45-6,2.72l45.37-91.45c-10.6-7.73-20.93-14.56-30.36-22.38-30.16-24.91-52.34-55.3-61.92-93.81C2.5,257.26,1.52,248.3,0,239.48Zm358.32,17.21a25.71,25.71,0,0,0,26.18-25.24q0-.24,0-0.47c0.1-14.62-11.49-26.12-26.34-26.14-13.92,0-25.33,11.68-25.38,26A25.72,25.72,0,0,0,358.32,256.69Zm-102.36,0a26.14,26.14,0,0,0,26.08-26c-0.09-14.47-11.92-25.87-26.8-25.84-13.55,0-25.09,11.82-25.25,25.79a26,26,0,0,0,25.95,26h0Zm-128.44-26.3a25.85,25.85,0,0,0,51.68,1c0.2-15.13-11.43-26.64-26.88-26.62-13.21.05-24.69,11.89-24.8,25.62h0Z"/><text x="0" y="527" fill="#000000" font-size="5px" font-weight="bold" font-family="'Helvetica Neue', Helvetica, Arial-Unicode, Arial, Sans-serif">Created by i cons</text><text x="0" y="532" fill="#000000" font-size="5px" font-weight="bold" font-family="'Helvetica Neue', Helvetica, Arial-Unicode, Arial, Sans-serif">from the Noun Project</text></svg>