<?xml version="1.0" encoding="utf-8"?>
<!-- Generator: Adobe Illustrator 21.1.0, SVG Export Plug-In . SVG Version: 6.00 Build 0)  -->
<svg version="1.1" id="Layer_1" xmlns="http://www.w3.org/2000/svg" xmlns:xlink="http://www.w3.org/1999/xlink" x="0px" y="0px"
	 viewBox="0 0 100 100" style="enable-background:new 0 0 100 100;" xml:space="preserve">
<style type="text/css">
	.st0{display:none;enable-background:new    ;}
	.st1{display:inline;}
</style>
<g>
	<path d="M92.3,56.6H58.8L52.2,50l6.6-6.6h33.5V9.9l7.7-7.7L97.8,0l-7.7,7.7H56.6v33.5L50,47.8l-6.6-6.6V7.7H9.9L2.2,0L0,2.2
		l7.7,7.7v33.5h33.5l6.6,6.6l-6.6,6.6H7.7v33.5L0,97.8l2.2,2.2l7.7-7.7h33.5V58.8l6.6-6.6l6.6,6.6v33.5h33.5l7.7,7.7l2.2-2.2
		l-7.7-7.7L92.3,56.6L92.3,56.6z M59.7,10.8h29.6v29.6H61.8l13.7-13.7l-2.2-2.2L59.7,38.2V10.8z M10.8,40.3V10.8h29.6v27.4
		L26.6,24.5l-2.2,2.2l13.7,13.7C38.2,40.3,10.8,40.3,10.8,40.3z M40.3,89.2H10.8V59.7h27.4L24.5,73.4l2.2,2.2l13.7-13.7
		C40.3,61.8,40.3,89.2,40.3,89.2z M89.2,89.2H59.7V61.8l13.7,13.7l2.2-2.2L61.8,59.7h27.4V89.2z"/>
</g>
<text transform="matrix(1 0 0 1 0 115)" class="st0" style="font-family:'HelveticaNeue-Bold'; font-size:5px;">Created by Yu luck</text>
<text transform="matrix(1 0 0 1 0 120)" class="st0" style="font-family:'HelveticaNeue-Bold'; font-size:5px;">from the Noun Project</text>
</svg>
