<?xml version="1.0" encoding="utf-8"?>
<!-- Generator: Adobe Illustrator 22.0.0, SVG Export Plug-In . SVG Version: 6.00 Build 0)  -->
<svg version="1.1" id="Layer_1" xmlns="http://www.w3.org/2000/svg" xmlns:xlink="http://www.w3.org/1999/xlink" x="0px" y="0px"
	 viewBox="0 0 48 47.5" style="enable-background:new 0 0 48 47.5;" xml:space="preserve">
<path style="fill:#303030;" d="M24,0C10.7,0,0,10.7,0,24s10.7,24,24,24c13.3,0,24-10.7,24-24S37.3,0,24,0z M36.3,15.6
	c0,0,0.1-0.1,0.1-0.1C36.4,15.5,36.4,15.5,36.3,15.6c0.1,0.1,0.1,0.2,0.1,0.2c1.3,0.3,2.3,0.6,2.3,0.8c0,0.2-0.6,0.5-1.5,0.8
	c0.4,0.9,0.7,1.9,0.9,2.9c0.7,3.2,0.3,6.2-0.7,8.4C35.6,34.7,30.1,39,23.6,39c-6.1,0-11.3-3.8-13.4-9.2c2.4,1.8,5.3,2.8,8.5,2.8
	c1.8,0,3.5-0.3,5.1-0.9c-1.7,0.1-3.5-0.1-5.2-0.8c-5.8-2.2-6.9-9.1-6.9-9.1c-0.4-2.8,0.2-2.9,1.4-0.4c0,0,1.4,3,5.5,4.6
	c0.1,0,0.2,0.1,0.3,0.1c-0.1,0-0.1-0.1-0.2-0.1c-5.4-2.9-5.6-9.9-5.6-9.9c-0.1-2.8,0.6-2.9,1.4-0.2c0,0,1,3.2,4.9,5.2
	c2,1,4.1,1.5,6.1,1.4c-1-5.4,0.9-10.2,4.2-10.9c1.5-0.3,3.1,0.3,4.4,1.5c0.4-0.1,0.8,0,1.3,0c1.7,0.3,3.1,0.7,3.1,0.9
	c0,0.2-1.1,0.8-2.6,1.2C36.1,15.4,36.2,15.5,36.3,15.6z"/>
<text transform="matrix(1 0 0 1 0 63)" style="display:none;enable-background:new    ; font-family:'HelveticaNeue-Bold'; font-size:5px;">Created by aguycalledgary</text>
<text transform="matrix(1 0 0 1 0 68)" style="display:none;enable-background:new    ; font-family:'HelveticaNeue-Bold'; font-size:5px;">from the Noun Project</text>
</svg>
