<?xml version="1.0" encoding="utf-8"?>
<!-- Generator: Adobe Illustrator 22.0.0, SVG Export Plug-In . SVG Version: 6.00 Build 0)  -->
<svg version="1.1" id="Layer_1" xmlns="http://www.w3.org/2000/svg" xmlns:xlink="http://www.w3.org/1999/xlink" x="0px" y="0px"
	 viewBox="0 0 100 125" style="enable-background:new 0 0 100 125;" xml:space="preserve">
<path d="M50,22C31.5,22,15.2,33.1,8.3,50.3L8,51l0.3,0.7C15.2,68.9,31.5,80,50,80s34.8-11.1,41.7-28.3L92,51l-0.3-0.7
	C84.8,33.1,68.5,22,50,22z M50,76c-16.6,0-31.2-9.8-37.6-25c6.4-15.2,21-25,37.6-25s31.2,9.8,37.6,25C81.2,66.2,66.6,76,50,76z"/>
<path style="fill:#A5A5A5;" d="M50,28c-12.7,0-23,10.3-23,23s10.3,23,23,23s23-10.3,23-23S62.7,28,50,28z M50,67v-4
	c6.6,0,12-5.4,12-12h4C66,59.8,58.8,67,50,67z"/>
<text transform="matrix(1 0 0 1 0 115)" style="font-family:'HelveticaNeue-Bold'; font-size:5px;">Created by Trident</text>
<text transform="matrix(1 0 0 1 0 120)" style="font-family:'HelveticaNeue-Bold'; font-size:5px;">from the Noun Project</text>
</svg>
