<svg id="Layer_1" xmlns="http://www.w3.org/2000/svg" viewBox="0 0 660.9 33.2"><style>.st0{fill:#282828}</style><path class="st0" d="M200.3 32.7h5.4v-6h-5.4v6zm-9.9 0h6.4V0h-6.4v32.7zM187 17c0-4.2-1-7.7-9.2-7.7-2.4 0-4.5.4-6 1.5-1.5 1-2.4 2.8-2.4 5.6h6.3c0-1.8.2-3.5 2.4-3.5 2.3 0 2.6 1.4 2.6 3.4v1.8c-5.9-.1-11.8.2-11.8 7.8 0 4 1.6 7.3 6.1 7.3 2.8 0 4.6-1.1 6-3.5h.1l.3 3h5.9c-.1-1.4-.3-2.9-.3-4.3V17zm-6.3 4.7c0 2.5.6 7.6-3.2 7.6-2.1 0-2.4-2-2.4-3.6.1-4.2 2.4-3.9 5.6-4m-13.6.6c.2-7.3-.7-12.9-9.3-12.9-8.4 0-9.3 5.3-9.3 11.6 0 7.2 1.1 12.2 9.3 12.2 3 0 5.3-.8 6.8-2.2 1.5-1.4 2.4-3.4 2.4-5.9h-6.5c0 1.9-.5 4.1-2.7 4.1-2.8 0-2.9-4.1-2.9-6.8h12.2v-.1zm-12.2-3.6c0-1.9 0-5.4 2.9-5.4 3 0 2.9 3.2 2.9 5.4h-5.8zm-19.8-8.9v22.9h6.4V20.3c0-2.3.1-5.5 5.7-5.2V9.4c-2.6 0-4.8.8-5.9 3.4h-.1v-3h-6.1zm-21.6 4h2.6v14.1c0 1.4.7 5.1 6.3 5.1 1.5 0 2.4-.1 3.3-.2v-3.9c-.3.1-.7.1-1.1.1-2.1 0-2-1.1-2-2.9V13.8h3.3v-4h-3.3V3.4l-6.4 2.9v3.6h-2.6v3.9h-.1zM105.8 5h6.4V0h-6.4v5zm6.4 4.8h-6.4v22.9h6.4V9.8zM94.6 22.3c.2-7.3-.7-12.9-9.3-12.9-8.4 0-9.3 5.3-9.3 11.6 0 7.2 1.1 12.2 9.3 12.2 3 0 5.3-.8 6.8-2.2 1.5-1.4 2.4-3.4 2.4-5.9H88c0 1.9-.5 4.1-2.7 4.1-2.8 0-2.9-4.1-2.9-6.8h12.2v-.1zm-12.2-3.6c0-1.9 0-5.4 2.9-5.4 3 0 2.9 3.2 2.9 5.4h-5.8zm-19.8 14V20.3h.1l5.9 12.5h7.2L68.6 20l6.5-10.2h-6.7l-5.8 9.7h-.1V0h-6.4v32.7h6.5zM53.3 17c0-4.2-1-7.7-9.2-7.7-2.4 0-4.5.4-6 1.5-1.5 1-2.4 2.8-2.4 5.6H42c0-1.8.2-3.5 2.4-3.5 2.3 0 2.6 1.4 2.6 3.4v1.8c-5.9-.1-11.8.2-11.8 7.8 0 4 1.6 7.3 6.1 7.3 2.8 0 4.6-1.1 6-3.5h.1l.3 3h5.9c-.1-1.4-.3-2.9-.3-4.3V17zm-6.2 4.7c0 2.5.6 7.6-3.2 7.6-2.1 0-2.4-2-2.4-3.6.1-4.2 2.4-3.9 5.6-4m-40.4 11V7.5h.1l6 25.2h6.5l6.3-25.2h.1v25.2h6.7V0H21.7l-5.4 22.3h-.1L11 0H0v32.7h6.7zM646.3 24.2c0 6.4 2.4 9 7.3 9s7.3-2.5 7.3-9V9.4h-3v14.9c0 5.1-1.5 6.4-4.4 6.4-2.8 0-4.4-1.3-4.4-6.4V9.4h-3v14.8h.2zm-18.4-8.4c.3-4.5-1.5-6.9-6.1-6.9s-7.5 1.9-7.5 8.4V24c0 9 4.4 9.2 7.3 9.2 1.5 0 6.7 0 6.6-7.3h-3.1c0 4.5-2.8 4.9-3.7 4.9-2.3 0-4.2-.7-4.2-6.4v-6.2c0-4 .6-4.6.7-4.8.1-.3 1.1-1.8 3.5-1.8.6 0 2 .3 2.6 1s.7 2.1.7 3.4h3.2v-.2zm-30.3-6.4h-3l-5.4 20.5h-.1l-5.3-20.5h-3.2l6.7 23.3h3.5l6.8-23.3zm-52.7 5.4h3.1c1.8 0 2.7.5 2.7 2.8 0 2.9-1.1 3.5-3.3 3.5h-2.5v-6.3zm2.9 7.5c3.3 0 2.8 3.3 2.8 4 0 .9.1 3.8.2 4.3h1.4c0-.7-.2-1.3-.2-2 0-6.1-.1-6.4-2.5-6.9 2.3-.5 2.6-1.9 2.6-4.1 0-3-.8-4.1-4.1-4.1h-4.7v17.1h1.5v-8.3h3zM520 22c0 4.6 0 8.9 5.1 8.9s5.2-4.2 5.2-8.9 0-8.9-5.2-8.9c-5 .1-5.1 4.3-5.1 8.9m1.5 0c0-4.5 0-7.6 3.6-7.6s3.6 3.1 3.6 7.6 0 7.6-3.6 7.6c-3.5 0-3.6-3-3.6-7.6m-20.8 8.5h1.5v-8.1h5.3v-1.3h-5.3v-6.4h5.7v-1.3h-7.2v17.1zM463.6 9.4v19.9h-.1l-9.1-19.9h-4.2v23.3h2.6V12.5h.1l9.2 20.2h4.1V9.4h-2.6zm-32.3 6.3c.2-4.9-2.2-6.7-7.2-6.7-4.9 0-7.3 3-7.3 7.6v7.6c0 6.4 2.4 9 7.3 9 3 0 5.2-.7 7.1-1.7V20.1H424v2.6h4.3v7c-.6.5-2 1-4.2 1-2.8 0-4.3-1.3-4.3-6.4v-7.9c0-4.9 3.4-5 4.3-5 3 0 4.1 1.5 4.1 4.2l3.1.1zM398 9.4h-3v23.3h3V9.4zm-26.5 15.2H364l3.6-12.4h.1l3.8 12.4zm-12.9 8.1h3l1.7-5.5h9l1.7 5.5h3.3l-7.6-23.3h-3.8l-7.3 23.3zm-25.2 0V22.4h3.9c2.4 0 6.5-1.1 6.5-6.4 0-5.5-3.3-6.6-6.5-6.6h-6.9v23.3h3zm0-20.7h4.1c.6 0 3.3.4 3.3 3.9 0 3.6-2.9 4-4.1 4h-3.3V12zm-40.8 0l6.4 20.7h2.8l6.5-20.7h.1v20.7h3V9.4h-4.9L300.6 29h-.1l-5.9-19.5h-4.8v23.3h2.8V12zm-26.2 12.6H259l3.6-12.4h.1l3.7 12.4zm-12.9 8.1h3l1.7-5.5h9l1.7 5.5h3.3l-7.6-23.3h-3.8l-7.3 23.3zm-16.8-16.9c.3-4.5-1.5-6.9-6.1-6.9s-7.5 1.9-7.5 8.4V24c0 9 4.4 9.2 7.3 9.2 1.5 0 6.7 0 6.6-7.3h-3c0 4.5-2.8 4.9-3.7 4.9-2.3 0-4.2-.7-4.2-6.4v-6.2c0-4 .6-4.6.7-4.8.1-.3 1.1-1.8 3.5-1.8.6 0 2 .3 2.6 1s.7 2.1.7 3.4h3.1v-.2z"/></svg>